<svg width="131" height="130" viewBox="0 0 131 130" fill="none" xmlns="http://www.w3.org/2000/svg">
<rect x="0.910156" width="130" height="130" rx="65" fill="white"/>
<g clip-path="url(#clip0_7_762)">
<path d="M72.6539 82.2738C72.6565 82.3214 72.6459 82.3689 72.6231 82.4107C72.6002 82.4526 72.5661 82.4873 72.5246 82.5109C72.4832 82.5344 72.4359 82.546 72.3882 82.5441C72.3405 82.5423 72.2942 82.5271 72.2546 82.5005C70.5592 81.3324 64.4527 76.4431 66.0151 67.6159C68.0605 56.0385 80.2144 48.9412 84.8523 46.6247C85.0342 46.5329 85.237 46.4905 85.4405 46.5018C85.6439 46.513 85.8409 46.5775 86.0116 46.6888C86.1823 46.8001 86.3209 46.9543 86.4132 47.136C86.5056 47.3176 86.5485 47.5203 86.5379 47.7238C86.395 50.9521 86.3111 57.6255 87.6074 63.0914C90.2048 74.0231 85.6359 80.2777 76.2714 82.7124C76.2371 82.7211 76.2015 82.7227 76.1665 82.7172C76.1315 82.7116 76.0981 82.6991 76.0681 82.6802C76.0381 82.6613 76.0121 82.6364 75.992 82.6072C75.972 82.5781 75.9581 82.5451 75.9511 82.5103C75.6653 81.0613 74.3888 73.9542 75.5372 68.1482C75.542 68.1339 75.5439 68.1189 75.543 68.1039C75.542 68.0889 75.5383 68.0742 75.5317 68.0607C75.525 68.0472 75.5158 68.0351 75.5045 68.0252C75.4932 68.0153 75.48 68.0077 75.4657 68.0028C75.4515 67.998 75.4365 67.996 75.4214 67.9969C75.4064 67.9979 75.3916 68.0018 75.3781 68.0084C75.3646 68.0151 75.3527 68.0243 75.3427 68.0356C75.3328 68.0469 75.3252 68.06 75.3204 68.0742C74.4184 69.8633 72.2596 74.9498 72.6539 82.2738Z" fill="#003569"/>
<path d="M63.5321 80.4107C63.5643 80.4198 63.5932 80.4379 63.6156 80.4628C63.6379 80.4876 63.6527 80.5183 63.6584 80.5513C63.6641 80.5843 63.6604 80.6182 63.6476 80.6492C63.6348 80.6801 63.6135 80.7067 63.5862 80.7261C62.4033 81.564 57.7014 84.4226 52.2502 81.2633C45.0889 77.1183 43.3294 67.3793 42.9154 63.7518C42.8993 63.6094 42.9206 63.4653 42.9772 63.3337C43.0339 63.2021 43.1238 63.0876 43.2383 63.0015C43.3528 62.9154 43.488 62.8606 43.6301 62.8427C43.7723 62.8247 43.9166 62.8441 44.0489 62.8991C46.1485 63.7764 50.5399 65.4374 54.4631 65.9007C62.3145 66.8224 65.3506 71.3518 64.7 78.1139C64.6983 78.1387 64.6914 78.1628 64.6798 78.1847C64.6681 78.2066 64.6521 78.2259 64.6326 78.2412C64.6131 78.2565 64.5907 78.2676 64.5666 78.2737C64.5426 78.2798 64.5175 78.2808 64.493 78.2766C63.4629 78.1189 58.4605 77.2514 54.897 75.0927C54.8807 75.0796 54.8598 75.0735 54.839 75.0758C54.8182 75.0781 54.7992 75.0886 54.7861 75.1049C54.773 75.1213 54.7669 75.1422 54.7692 75.1629C54.7716 75.1837 54.782 75.2028 54.7984 75.2159C57.2165 77.667 60.224 79.4557 63.5321 80.4107Z" fill="#003569"/>
</g>
<rect x="1.41016" y="0.5" width="129" height="129" rx="64.5" stroke="white" stroke-dasharray="3 2"/>
<defs>
<clipPath id="clip0_7_762">
<rect width="46" height="37" fill="white" transform="translate(42.9102 46.5)"/>
</clipPath>
</defs>
</svg>
