<svg width="131" height="130" viewBox="0 0 131 130" fill="none" xmlns="http://www.w3.org/2000/svg">
<rect x="0.189941" width="130" height="130" rx="65" fill="white"/>
<g clip-path="url(#clip0_7_773)">
<path d="M80.4621 48.1154L70.0259 58.573V42.6072C73.9304 43.4885 77.5315 45.3891 80.4621 48.1154Z" fill="#003569"/>
<path d="M87.0725 59.336H72.563L82.107 49.7921C84.5036 52.5292 86.2066 55.8026 87.0725 59.336Z" fill="#003569"/>
<path d="M70.0259 71.9754L79.9622 81.9117C77.1245 84.4041 73.7089 86.1479 70.0259 86.9846V71.9754Z" fill="#003569"/>
<path d="M71.5044 70.1539H87.0886C86.1651 73.9442 84.2811 77.4328 81.618 80.2836L71.5044 70.1539Z" fill="#003569"/>
<path d="M57.3829 59.336H42.8735C43.7441 55.801 45.4528 52.5275 47.8551 49.7921L57.3829 59.336Z" fill="#003569"/>
<path d="M59.468 58.1162L49.4673 48.1155C52.2865 45.4873 55.728 43.6195 59.468 42.6878V58.1162Z" fill="#003569"/>
<path d="M58.4264 70.1539L48.3022 80.2836C45.6429 77.4316 43.7626 73.9431 42.8423 70.1539H58.4264Z" fill="#003569"/>
<path d="M59.4663 72.4109V86.8827C55.9472 86.0099 52.6889 84.3052 49.9653 81.9119L59.4663 72.4109Z" fill="#003569"/>
<path d="M87.7281 64.7852C87.7272 65.7987 87.6607 66.8111 87.5292 67.816H67.689V87.3877C65.7331 87.6209 63.7553 87.601 61.8045 87.3286V70.1322H61.7347L61.8153 70.0516V67.7946H42.3888C42.2573 66.7896 42.1909 65.7772 42.19 64.7637C42.188 63.7228 42.2599 62.683 42.4049 61.6522H61.7938V42.2203C63.7446 41.9479 65.7224 41.928 67.6782 42.1612V61.6522H87.5292C87.6699 62.6905 87.7364 63.7375 87.7281 64.7852Z" fill="#003569"/>
<path d="M61.7231 70.1538L61.8038 70.0732V70.1538H61.7231Z" fill="#003569"/>
</g>
<rect x="0.689941" y="0.5" width="129" height="129" rx="64.5" stroke="white" stroke-dasharray="3 2"/>
<defs>
<clipPath id="clip0_7_773">
<rect width="46" height="46" fill="white" transform="translate(42.1899 42)"/>
</clipPath>
</defs>
</svg>
