<svg width="131" height="130" viewBox="0 0 131 130" fill="none" xmlns="http://www.w3.org/2000/svg">
<rect x="0.630371" width="130" height="130" rx="65" fill="white"/>
<g clip-path="url(#clip0_7_750)">
<path d="M79.8076 88.9999H51.2699C50.6608 89.0044 50.0605 88.8549 49.5247 88.5652C48.989 88.2755 48.535 87.855 48.2052 87.3429C47.8755 86.8307 47.6808 86.2435 47.6389 85.6359C47.597 85.0282 47.7094 84.4198 47.9657 83.8672L57.036 64.251V44.7889H54.4365C54.2125 44.7889 53.9976 44.7003 53.8387 44.5424C53.6798 44.3846 53.5898 44.1703 53.5884 43.9463V41.8426C53.5898 41.6186 53.6798 41.4043 53.8387 41.2464C53.9976 41.0886 54.2125 41 54.4365 41H76.6908C76.9138 41.0014 77.1271 41.0907 77.2848 41.2484C77.4425 41.4061 77.5318 41.6196 77.5333 41.8426V43.9463C77.5318 44.1693 77.4425 44.3828 77.2848 44.5405C77.1271 44.6982 76.9138 44.7874 76.6908 44.7889H74.0419V64.251L83.1119 83.8672C83.3682 84.4198 83.4808 85.0282 83.4389 85.6359C83.397 86.2435 83.202 86.8307 82.8723 87.3429C82.5426 87.855 82.0889 88.2755 81.5531 88.5652C81.0173 88.8549 80.4167 89.0044 79.8076 88.9999Z" fill="#003569"/>
<path d="M70.8106 45.0479H60.2534V65.4461H70.8106V45.0479Z" fill="white"/>
<path d="M60.7593 77.4625L63.8818 80.7667C63.999 80.8848 64.1385 80.9785 64.2921 81.0424C64.4457 81.1064 64.6103 81.1393 64.7767 81.1393C64.9431 81.1393 65.1079 81.1064 65.2615 81.0424C65.4151 80.9785 65.5544 80.8848 65.6716 80.7667L72.1371 73.7452" stroke="white" stroke-width="3" stroke-miterlimit="10" stroke-linecap="round"/>
</g>
<rect x="1.13037" y="0.5" width="129" height="129" rx="64.5" stroke="white" stroke-dasharray="3 2"/>
<defs>
<clipPath id="clip0_7_750">
<rect width="36" height="48" fill="white" transform="translate(47.6304 41)"/>
</clipPath>
</defs>
</svg>
