<svg width="131" height="130" viewBox="0 0 131 130" fill="none" xmlns="http://www.w3.org/2000/svg">
<rect x="0.189941" width="130" height="130" rx="65" fill="white"/>
<g clip-path="url(#clip0_7_822)">
<path d="M68.4848 87.4248C69.022 87.1132 71.7726 85.4048 72.9437 84.2283C72.9437 84.2283 70.4779 77.0886 72.9437 73.328C75.4096 69.5674 84.4134 66.8545 86.5032 60.1929C86.5096 60.1712 86.5217 60.1516 86.5384 60.1363C86.555 60.1211 86.5755 60.1106 86.5977 60.1062C86.6198 60.1017 86.6428 60.1034 86.664 60.1111C86.6853 60.1188 86.704 60.1322 86.7182 60.1498C87.5885 61.3693 91.9723 68.2405 88.6093 79.0388C85.5686 88.7894 76.7903 86.9628 75.0336 86.49C75.0026 86.4825 74.9741 86.4669 74.9513 86.4446C74.9285 86.4224 74.9121 86.3944 74.9038 86.3636C74.8956 86.3328 74.8959 86.3003 74.9045 86.2697C74.9131 86.239 74.9298 86.2111 74.9529 86.1891C76.065 85.1147 81.0344 80.0594 82.5924 75.6166C82.5924 75.6166 75.4687 85.0234 68.6674 88.6765C68.6398 88.6901 68.6092 88.6965 68.5784 88.695C68.5476 88.6936 68.5177 88.6845 68.4914 88.6684C68.4652 88.6523 68.4434 88.6299 68.4282 88.6031C68.4129 88.5763 68.4046 88.5462 68.4042 88.5154V87.5967C68.3985 87.5633 68.4032 87.5289 68.4176 87.4982C68.432 87.4675 68.4554 87.4418 68.4848 87.4248Z" fill="#003569"/>
<path d="M45.5351 59.0001C45.5781 59.6018 45.8413 62.8467 46.3571 64.4262C46.3571 64.4262 53.8352 65.4684 56.07 69.374C58.3049 73.2796 56.6072 82.5306 61.6195 87.4139C61.6371 87.4292 61.65 87.4492 61.6568 87.4715C61.6635 87.4938 61.6639 87.5175 61.6577 87.54C61.6515 87.5624 61.6391 87.5827 61.6219 87.5985C61.6047 87.6142 61.5834 87.6248 61.5605 87.6289C60.0777 87.8492 51.971 88.6388 43.8751 80.7363C36.5634 73.6073 42.1828 66.6018 43.3916 65.2588C43.413 65.2357 43.44 65.2187 43.4701 65.2092C43.5001 65.1997 43.532 65.198 43.5629 65.2045C43.5937 65.211 43.6223 65.2254 43.6459 65.2462C43.6696 65.267 43.6874 65.2936 43.6977 65.3233C44.1651 66.806 46.3839 73.5267 49.6502 76.9327C49.6502 76.9327 44.5036 66.3118 44.3371 58.5918C44.3365 58.5612 44.3439 58.531 44.3585 58.5041C44.3731 58.4772 44.3944 58.4545 44.4204 58.4383C44.4463 58.422 44.4761 58.4128 44.5067 58.4115C44.5373 58.4102 44.5677 58.4167 44.5949 58.4307L45.4384 58.8605C45.4649 58.8738 45.4876 58.8935 45.5045 58.9179C45.5214 58.9423 45.5319 58.9706 45.5351 59.0001Z" fill="#003569"/>
<path d="M82.5166 53.0908C81.9794 52.8597 78.9494 51.6295 77.3055 51.3717C77.3055 51.3717 73.0077 57.5658 68.495 57.7915C63.9823 58.0171 56.5095 52.3333 49.8963 54.5681C49.8754 54.5777 49.8521 54.5809 49.8293 54.5774C49.8065 54.5739 49.7853 54.5639 49.7682 54.5484C49.7511 54.533 49.7388 54.513 49.7329 54.4907C49.727 54.4685 49.7278 54.4449 49.7351 54.4231C50.2078 52.9994 53.1787 45.4138 63.8856 41.7714C73.5557 38.4836 77.2571 46.6655 77.9071 48.3524C77.9177 48.3821 77.9205 48.414 77.915 48.445C77.9096 48.476 77.8962 48.5051 77.8762 48.5295C77.8562 48.5538 77.8302 48.5725 77.8008 48.5839C77.7714 48.5952 77.7396 48.5987 77.7084 48.5941C76.172 48.3416 69.1719 47.2941 64.6646 48.6425C64.6646 48.6425 76.4835 48.8627 83.4245 52.2096C83.45 52.2262 83.4709 52.249 83.4854 52.2757C83.4999 52.3025 83.5076 52.3324 83.5076 52.3628C83.5076 52.3932 83.4999 52.4232 83.4854 52.4499C83.4709 52.4767 83.45 52.4993 83.4245 52.5159L82.6616 53.0531C82.6426 53.0711 82.6193 53.0839 82.594 53.0905C82.5686 53.0971 82.542 53.0972 82.5166 53.0908Z" fill="#003569"/>
</g>
<rect x="0.689941" y="0.5" width="129" height="129" rx="64.5" stroke="white" stroke-dasharray="3 2"/>
<defs>
<clipPath id="clip0_7_822">
<rect width="50" height="48" fill="white" transform="translate(40.1899 41)"/>
</clipPath>
</defs>
</svg>
