<svg width="612" height="267" viewBox="0 0 612 267" fill="none" xmlns="http://www.w3.org/2000/svg">
<path d="M16.216 5.8H18.536V17H16.216V5.8ZM28.9984 5.8H31.2064V17.56L23.2384 10.056V17H21.0304V5.24L28.9984 12.744V5.8ZM39.1597 12.84V11.016H44.6798C44.7118 11.8693 44.6104 12.6747 44.3758 13.432C44.1518 14.1893 43.7944 14.8613 43.3038 15.448C42.8238 16.024 42.2264 16.4773 41.5118 16.808C40.7971 17.1387 39.9811 17.304 39.0638 17.304C38.1998 17.304 37.3998 17.16 36.6638 16.872C35.9384 16.584 35.3037 16.1787 34.7597 15.656C34.2264 15.1333 33.8104 14.5093 33.5117 13.784C33.2237 13.0587 33.0797 12.264 33.0797 11.4C33.0797 10.536 33.2291 9.74667 33.5277 9.032C33.8371 8.30667 34.2637 7.688 34.8077 7.176C35.3517 6.664 35.9917 6.26933 36.7277 5.992C37.4637 5.71467 38.2638 5.576 39.1278 5.576C39.8958 5.576 40.5838 5.68267 41.1918 5.896C41.8104 6.10933 42.3544 6.408 42.8238 6.792C43.3038 7.16533 43.7144 7.61333 44.0558 8.136L42.1038 9.272C41.8264 8.78133 41.4371 8.38667 40.9358 8.088C40.4451 7.77867 39.8424 7.624 39.1278 7.624C38.4558 7.624 37.8424 7.77867 37.2878 8.088C36.7331 8.38667 36.2904 8.81867 35.9597 9.384C35.6397 9.94933 35.4797 10.6213 35.4797 11.4C35.4797 12.168 35.6397 12.8453 35.9597 13.432C36.2797 14.008 36.7118 14.456 37.2558 14.776C37.8104 15.096 38.4344 15.256 39.1278 15.256C39.5864 15.256 39.9971 15.1973 40.3598 15.08C40.7224 14.952 41.0318 14.776 41.2878 14.552C41.5544 14.328 41.7784 14.072 41.9598 13.784C42.1411 13.496 42.2798 13.1813 42.3758 12.84H39.1597ZM49.1719 11.784H51.5879L55.2359 17H52.5319L49.1719 11.784ZM46.6279 5.8H48.9159V17H46.6279V5.8ZM48.0199 7.752V5.8H50.3879C51.2732 5.8 52.0252 5.94933 52.6439 6.248C53.2625 6.54667 53.7372 6.96267 54.0679 7.496C54.3985 8.02933 54.5639 8.65333 54.5639 9.368C54.5639 10.072 54.3985 10.696 54.0679 11.24C53.7372 11.7733 53.2625 12.1893 52.6439 12.488C52.0252 12.7867 51.2732 12.936 50.3879 12.936H48.0199V11.112H50.2439C50.6492 11.112 50.9959 11.048 51.2839 10.92C51.5825 10.7813 51.8119 10.5893 51.9719 10.344C52.1319 10.088 52.2119 9.784 52.2119 9.432C52.2119 9.08 52.1319 8.78133 51.9719 8.536C51.8119 8.28 51.5825 8.088 51.2839 7.96C50.9959 7.82133 50.6492 7.752 50.2439 7.752H48.0199ZM58.1017 17V15.064H63.7498V17H58.1017ZM58.1017 7.736V5.8H63.7498V7.736H58.1017ZM58.1017 12.008V10.104H63.4298V12.008H58.1017ZM56.6297 5.8H58.8377V17H56.6297V5.8ZM66.0848 5.8H68.4208V17H66.0848V5.8ZM69.8928 17H67.5568V14.92H69.8128C70.3034 14.92 70.7674 14.856 71.2048 14.728C71.6421 14.5893 72.0261 14.376 72.3568 14.088C72.6874 13.8 72.9434 13.4373 73.1248 13C73.3168 12.552 73.4128 12.0187 73.4128 11.4C73.4128 10.7813 73.3168 10.2533 73.1248 9.816C72.9434 9.368 72.6874 9 72.3568 8.712C72.0261 8.424 71.6421 8.216 71.2048 8.088C70.7674 7.94933 70.3034 7.88 69.8128 7.88H67.5568V5.8H69.8928C71.0661 5.8 72.0901 6.02933 72.9648 6.488C73.8501 6.94667 74.5381 7.59733 75.0288 8.44C75.5194 9.272 75.7648 10.2587 75.7648 11.4C75.7648 12.5413 75.5194 13.5333 75.0288 14.376C74.5381 15.208 73.8501 15.8533 72.9648 16.312C72.0901 16.7707 71.0661 17 69.8928 17ZM77.6179 5.8H79.9379V17H77.6179V5.8ZM83.9042 17V15.064H89.5522V17H83.9042ZM83.9042 7.736V5.8H89.5522V7.736H83.9042ZM83.9042 12.008V10.104H89.2322V12.008H83.9042ZM82.4322 5.8H84.6402V17H82.4322V5.8ZM99.8552 5.8H102.063V17.56L94.0952 10.056V17H91.8872V5.24L99.8552 12.744V5.8ZM103.457 7.864V5.8H111.777V7.864H108.753V17H106.465V7.864H103.457ZM114.133 13.24C114.367 13.656 114.623 14.0187 114.901 14.328C115.189 14.6373 115.503 14.8773 115.845 15.048C116.186 15.2187 116.554 15.304 116.949 15.304C117.407 15.304 117.781 15.1867 118.069 14.952C118.357 14.7173 118.501 14.3973 118.501 13.992C118.501 13.64 118.41 13.3573 118.229 13.144C118.058 12.9307 117.797 12.744 117.445 12.584C117.103 12.4133 116.682 12.232 116.181 12.04C115.914 11.944 115.605 11.816 115.253 11.656C114.911 11.4853 114.586 11.272 114.277 11.016C113.967 10.7493 113.711 10.4293 113.509 10.056C113.306 9.672 113.205 9.21333 113.205 8.68C113.205 8.04 113.365 7.49067 113.685 7.032C114.015 6.56267 114.458 6.20533 115.013 5.96C115.578 5.704 116.207 5.576 116.901 5.576C117.615 5.576 118.229 5.69867 118.741 5.944C119.263 6.17867 119.695 6.48267 120.037 6.856C120.389 7.21867 120.661 7.59733 120.853 7.992L119.061 8.984C118.911 8.71733 118.73 8.47733 118.517 8.264C118.314 8.04 118.079 7.864 117.813 7.736C117.546 7.59733 117.242 7.528 116.901 7.528C116.453 7.528 116.117 7.63467 115.893 7.848C115.669 8.05067 115.557 8.29067 115.557 8.568C115.557 8.84533 115.647 9.09067 115.829 9.304C116.01 9.50667 116.287 9.704 116.661 9.896C117.034 10.0773 117.503 10.264 118.069 10.456C118.431 10.584 118.778 10.744 119.109 10.936C119.45 11.128 119.754 11.3627 120.021 11.64C120.298 11.9067 120.511 12.2267 120.661 12.6C120.821 12.9627 120.901 13.384 120.901 13.864C120.901 14.408 120.794 14.8933 120.581 15.32C120.367 15.7467 120.074 16.1093 119.701 16.408C119.327 16.696 118.906 16.9147 118.437 17.064C117.978 17.224 117.493 17.304 116.981 17.304C116.298 17.304 115.658 17.176 115.061 16.92C114.474 16.6533 113.962 16.296 113.525 15.848C113.087 15.4 112.746 14.9147 112.501 14.392L114.133 13.24Z" fill="#003569"/>
<path d="M23.784 60.96V57.84H29.208C30.2 57.84 31.064 57.68 31.8 57.36C32.536 57.04 33.096 56.576 33.48 55.968C33.896 55.36 34.104 54.64 34.104 53.808C34.104 52.528 33.656 51.552 32.76 50.88C31.896 50.208 30.712 49.872 29.208 49.872H25.512V72.528H29.928C31.08 72.528 32.12 72.368 33.048 72.048C33.976 71.696 34.696 71.152 35.208 70.416C35.752 69.68 36.024 68.736 36.024 67.584C36.024 66.752 35.864 66.048 35.544 65.472C35.256 64.864 34.824 64.368 34.248 63.984C33.704 63.568 33.064 63.28 32.328 63.12C31.592 62.928 30.792 62.832 29.928 62.832H23.784V59.088H30.552C32.184 59.088 33.736 59.264 35.208 59.616C36.712 59.968 38.056 60.528 39.24 61.296C40.424 62.032 41.352 62.992 42.024 64.176C42.728 65.36 43.08 66.784 43.08 68.448C43.08 70.656 42.552 72.464 41.496 73.872C40.472 75.28 39.016 76.32 37.128 76.992C35.24 77.664 33.048 78 30.552 78H18.648V44.4H29.832C32.072 44.4 34.04 44.72 35.736 45.36C37.432 45.968 38.76 46.896 39.72 48.144C40.68 49.392 41.16 50.976 41.16 52.896C41.16 54.592 40.68 56.048 39.72 57.264C38.76 58.48 37.432 59.408 35.736 60.048C34.04 60.656 32.072 60.96 29.832 60.96H23.784ZM58.8493 78.48C56.4493 78.48 54.3533 78 52.5613 77.04C50.7693 76.08 49.3773 74.752 48.3852 73.056C47.4252 71.328 46.9452 69.296 46.9452 66.96C46.9452 64.592 47.4252 62.56 48.3852 60.864C49.3773 59.136 50.7693 57.808 52.5613 56.88C54.3533 55.92 56.4653 55.44 58.8973 55.44C61.3293 55.44 63.3933 55.888 65.0893 56.784C66.8173 57.648 68.1293 58.928 69.0253 60.624C69.9213 62.288 70.3693 64.304 70.3693 66.672C70.3693 66.96 70.3533 67.264 70.3213 67.584C70.3213 67.904 70.3053 68.16 70.2733 68.352H50.4973V64.512H64.8493L63.1693 66.72C63.2973 66.528 63.4093 66.272 63.5053 65.952C63.6333 65.6 63.6973 65.312 63.6973 65.088C63.6973 64 63.4893 63.072 63.0733 62.304C62.6893 61.536 62.1293 60.928 61.3933 60.48C60.6573 60.032 59.7933 59.808 58.8012 59.808C57.5853 59.808 56.5613 60.08 55.7293 60.624C54.9293 61.136 54.3053 61.92 53.8572 62.976C53.4413 64 53.2173 65.28 53.1853 66.816C53.1853 68.288 53.3933 69.536 53.8093 70.56C54.2573 71.584 54.9133 72.368 55.7773 72.912C56.6413 73.456 57.6813 73.728 58.8973 73.728C60.2733 73.728 61.4413 73.472 62.4013 72.96C63.3933 72.416 64.2093 71.616 64.8493 70.56L70.2733 72.24C69.1213 74.32 67.5853 75.888 65.6653 76.944C63.7773 77.968 61.5053 78.48 58.8493 78.48ZM72.3062 55.92H85.9383V61.152H72.3062V55.92ZM76.0983 48.24H82.0983V78H76.0983V48.24ZM86.4956 55.92H100.128V61.152H86.4956V55.92ZM90.2876 48.24H96.2876V78H90.2876V48.24ZM113.933 78.48C111.533 78.48 109.437 78 107.645 77.04C105.853 76.08 104.461 74.752 103.469 73.056C102.509 71.328 102.029 69.296 102.029 66.96C102.029 64.592 102.509 62.56 103.469 60.864C104.461 59.136 105.853 57.808 107.645 56.88C109.437 55.92 111.549 55.44 113.981 55.44C116.413 55.44 118.477 55.888 120.173 56.784C121.901 57.648 123.213 58.928 124.109 60.624C125.005 62.288 125.453 64.304 125.453 66.672C125.453 66.96 125.437 67.264 125.405 67.584C125.405 67.904 125.389 68.16 125.357 68.352H105.581V64.512H119.933L118.253 66.72C118.381 66.528 118.493 66.272 118.589 65.952C118.717 65.6 118.781 65.312 118.781 65.088C118.781 64 118.573 63.072 118.157 62.304C117.773 61.536 117.213 60.928 116.477 60.48C115.741 60.032 114.877 59.808 113.885 59.808C112.669 59.808 111.645 60.08 110.813 60.624C110.013 61.136 109.389 61.92 108.941 62.976C108.525 64 108.301 65.28 108.269 66.816C108.269 68.288 108.477 69.536 108.893 70.56C109.341 71.584 109.997 72.368 110.861 72.912C111.725 73.456 112.765 73.728 113.981 73.728C115.357 73.728 116.525 73.472 117.485 72.96C118.477 72.416 119.293 71.616 119.933 70.56L125.357 72.24C124.205 74.32 122.669 75.888 120.749 76.944C118.861 77.968 116.589 78.48 113.933 78.48ZM136.318 55.92V78H130.222V55.92H136.318ZM142.798 62.4C142.382 62.016 141.95 61.728 141.502 61.536C141.086 61.312 140.558 61.2 139.918 61.2C139.15 61.2 138.494 61.408 137.95 61.824C137.406 62.24 136.99 62.832 136.702 63.6C136.446 64.336 136.318 65.232 136.318 66.288L134.59 64.56C134.59 62.8 134.926 61.248 135.598 59.904C136.27 58.528 137.15 57.44 138.238 56.64C139.326 55.808 140.446 55.392 141.598 55.392C142.398 55.392 143.15 55.536 143.854 55.824C144.59 56.112 145.182 56.544 145.63 57.12L142.798 62.4ZM164.052 44.4H171.012V78H164.052V44.4ZM192.015 64.56C192.015 63.088 191.727 61.968 191.151 61.2C190.575 60.432 189.647 60.048 188.367 60.048C187.503 60.048 186.735 60.24 186.063 60.624C185.391 60.976 184.879 61.488 184.527 62.16C184.175 62.832 183.999 63.632 183.999 64.56V78H177.759V55.92H183.999V59.28C184.671 58.032 185.551 57.088 186.639 56.448C187.759 55.776 189.103 55.44 190.671 55.44C193.295 55.44 195.247 56.192 196.527 57.696C197.807 59.168 198.447 61.232 198.447 63.888V78H192.015V64.56ZM203.595 79.536H209.691C209.723 80.496 209.979 81.312 210.459 81.984C210.939 82.688 211.595 83.232 212.427 83.616C213.259 84 214.235 84.192 215.355 84.192C216.379 84.192 217.339 83.952 218.235 83.472C219.163 82.992 219.899 82.256 220.443 81.264C221.019 80.272 221.307 79.024 221.307 77.52V55.92H227.307V77.52C227.307 80.24 226.763 82.48 225.675 84.24C224.619 86 223.195 87.28 221.403 88.08C219.611 88.912 217.659 89.328 215.547 89.328C212.987 89.328 210.843 88.912 209.115 88.08C207.387 87.28 206.059 86.128 205.131 84.624C204.235 83.152 203.723 81.456 203.595 79.536ZM203.163 66.768C203.163 64.304 203.659 62.24 204.651 60.576C205.643 58.88 206.955 57.6 208.587 56.736C210.219 55.872 211.947 55.44 213.771 55.44C215.627 55.44 217.259 55.888 218.667 56.784C220.107 57.68 221.227 58.976 222.027 60.672C222.859 62.336 223.275 64.368 223.275 66.768C223.275 69.136 222.859 71.168 222.027 72.864C221.227 74.56 220.107 75.856 218.667 76.752C217.259 77.616 215.627 78.048 213.771 78.048C211.947 78.048 210.219 77.616 208.587 76.752C206.955 75.888 205.643 74.624 204.651 72.96C203.659 71.264 203.163 69.2 203.163 66.768ZM209.595 66.768C209.595 68.08 209.867 69.2 210.411 70.128C210.955 71.024 211.691 71.712 212.619 72.192C213.547 72.672 214.539 72.912 215.595 72.912C216.523 72.912 217.419 72.688 218.283 72.24C219.179 71.76 219.899 71.072 220.443 70.176C221.019 69.248 221.307 68.112 221.307 66.768C221.307 65.744 221.147 64.848 220.827 64.08C220.507 63.312 220.059 62.672 219.483 62.16C218.939 61.648 218.331 61.264 217.659 61.008C216.987 60.72 216.299 60.576 215.595 60.576C214.539 60.576 213.547 60.816 212.619 61.296C211.691 61.776 210.955 62.48 210.411 63.408C209.867 64.304 209.595 65.424 209.595 66.768ZM239.515 55.92V78H233.419V55.92H239.515ZM245.995 62.4C245.579 62.016 245.147 61.728 244.699 61.536C244.283 61.312 243.755 61.2 243.115 61.2C242.347 61.2 241.691 61.408 241.147 61.824C240.603 62.24 240.187 62.832 239.899 63.6C239.643 64.336 239.515 65.232 239.515 66.288L237.787 64.56C237.787 62.8 238.123 61.248 238.795 59.904C239.467 58.528 240.347 57.44 241.435 56.64C242.523 55.808 243.643 55.392 244.795 55.392C245.595 55.392 246.347 55.536 247.051 55.824C247.787 56.112 248.379 56.544 248.827 57.12L245.995 62.4ZM261.915 78.48C259.515 78.48 257.419 78 255.627 77.04C253.835 76.08 252.443 74.752 251.451 73.056C250.491 71.328 250.011 69.296 250.011 66.96C250.011 64.592 250.491 62.56 251.451 60.864C252.443 59.136 253.835 57.808 255.627 56.88C257.419 55.92 259.531 55.44 261.963 55.44C264.395 55.44 266.459 55.888 268.155 56.784C269.883 57.648 271.195 58.928 272.091 60.624C272.987 62.288 273.435 64.304 273.435 66.672C273.435 66.96 273.419 67.264 273.387 67.584C273.387 67.904 273.371 68.16 273.339 68.352H253.563V64.512H267.915L266.235 66.72C266.363 66.528 266.475 66.272 266.571 65.952C266.699 65.6 266.763 65.312 266.763 65.088C266.763 64 266.555 63.072 266.139 62.304C265.755 61.536 265.195 60.928 264.459 60.48C263.723 60.032 262.859 59.808 261.867 59.808C260.651 59.808 259.627 60.08 258.795 60.624C257.995 61.136 257.371 61.92 256.923 62.976C256.507 64 256.283 65.28 256.251 66.816C256.251 68.288 256.459 69.536 256.875 70.56C257.323 71.584 257.979 72.368 258.843 72.912C259.707 73.456 260.747 73.728 261.963 73.728C263.339 73.728 264.507 73.472 265.467 72.96C266.459 72.416 267.275 71.616 267.915 70.56L273.339 72.24C272.187 74.32 270.651 75.888 268.731 76.944C266.843 77.968 264.571 78.48 261.915 78.48ZM294.86 40.56H301.1V78H294.86V40.56ZM276.716 66.96C276.716 64.496 277.212 62.416 278.204 60.72C279.196 58.992 280.508 57.68 282.14 56.784C283.772 55.888 285.5 55.44 287.324 55.44C289.18 55.44 290.812 55.904 292.22 56.832C293.66 57.76 294.78 59.088 295.58 60.816C296.412 62.512 296.828 64.56 296.828 66.96C296.828 69.328 296.412 71.376 295.58 73.104C294.78 74.832 293.66 76.16 292.22 77.088C290.812 78.016 289.18 78.48 287.324 78.48C285.5 78.48 283.772 78.032 282.14 77.136C280.508 76.24 279.196 74.928 278.204 73.2C277.212 71.472 276.716 69.392 276.716 66.96ZM283.148 66.96C283.148 68.272 283.42 69.408 283.964 70.368C284.508 71.328 285.244 72.064 286.172 72.576C287.1 73.088 288.092 73.344 289.148 73.344C290.076 73.344 290.972 73.104 291.836 72.624C292.732 72.112 293.452 71.376 293.996 70.416C294.572 69.456 294.86 68.304 294.86 66.96C294.86 65.616 294.572 64.464 293.996 63.504C293.452 62.544 292.732 61.824 291.836 61.344C290.972 60.832 290.076 60.576 289.148 60.576C288.092 60.576 287.1 60.832 286.172 61.344C285.244 61.856 284.508 62.592 283.964 63.552C283.42 64.512 283.148 65.648 283.148 66.96ZM306.871 47.376C306.871 46.352 307.239 45.52 307.975 44.88C308.711 44.208 309.591 43.872 310.615 43.872C311.639 43.872 312.503 44.208 313.207 44.88C313.943 45.52 314.311 46.352 314.311 47.376C314.311 48.368 313.943 49.2 313.207 49.872C312.503 50.544 311.639 50.88 310.615 50.88C309.591 50.88 308.711 50.544 307.975 49.872C307.239 49.2 306.871 48.368 306.871 47.376ZM307.543 55.92H313.591V78H307.543V55.92ZM330.686 78.48C328.286 78.48 326.19 78 324.398 77.04C322.606 76.08 321.214 74.752 320.222 73.056C319.262 71.328 318.782 69.296 318.782 66.96C318.782 64.592 319.262 62.56 320.222 60.864C321.214 59.136 322.606 57.808 324.398 56.88C326.19 55.92 328.302 55.44 330.734 55.44C333.166 55.44 335.23 55.888 336.926 56.784C338.654 57.648 339.966 58.928 340.862 60.624C341.758 62.288 342.206 64.304 342.206 66.672C342.206 66.96 342.19 67.264 342.158 67.584C342.158 67.904 342.142 68.16 342.11 68.352H322.334V64.512H336.686L335.006 66.72C335.134 66.528 335.246 66.272 335.342 65.952C335.47 65.6 335.534 65.312 335.534 65.088C335.534 64 335.326 63.072 334.91 62.304C334.526 61.536 333.966 60.928 333.23 60.48C332.494 60.032 331.63 59.808 330.638 59.808C329.422 59.808 328.398 60.08 327.566 60.624C326.766 61.136 326.142 61.92 325.694 62.976C325.278 64 325.054 65.28 325.022 66.816C325.022 68.288 325.23 69.536 325.646 70.56C326.094 71.584 326.75 72.368 327.614 72.912C328.478 73.456 329.518 73.728 330.734 73.728C332.11 73.728 333.278 73.472 334.238 72.96C335.23 72.416 336.046 71.616 336.686 70.56L342.11 72.24C340.958 74.32 339.422 75.888 337.502 76.944C335.614 77.968 333.342 78.48 330.686 78.48ZM361.231 64.56C361.231 63.088 360.943 61.968 360.367 61.2C359.791 60.432 358.863 60.048 357.583 60.048C356.719 60.048 355.951 60.24 355.279 60.624C354.607 60.976 354.095 61.488 353.743 62.16C353.391 62.832 353.215 63.632 353.215 64.56V78H346.975V55.92H353.215V59.28C353.887 58.032 354.767 57.088 355.855 56.448C356.975 55.776 358.319 55.44 359.887 55.44C362.511 55.44 364.463 56.192 365.743 57.696C367.023 59.168 367.663 61.232 367.663 63.888V78H361.231V64.56ZM371.036 55.92H384.668V61.152H371.036V55.92ZM374.828 48.24H380.828V78H374.828V48.24ZM389.161 70.368C390.089 71.232 390.953 71.936 391.753 72.48C392.553 72.992 393.305 73.376 394.009 73.632C394.745 73.888 395.433 74.016 396.073 74.016C396.905 74.016 397.545 73.84 397.993 73.488C398.441 73.104 398.665 72.592 398.665 71.952C398.665 71.376 398.473 70.896 398.089 70.512C397.737 70.096 397.209 69.728 396.505 69.408C395.801 69.088 394.905 68.752 393.817 68.4C392.793 68.016 391.801 67.568 390.841 67.056C389.881 66.512 389.081 65.808 388.441 64.944C387.833 64.048 387.529 62.912 387.529 61.536C387.529 60.224 387.881 59.12 388.585 58.224C389.289 57.296 390.233 56.608 391.417 56.16C392.633 55.68 393.977 55.44 395.449 55.44C396.697 55.44 397.865 55.6 398.953 55.92C400.041 56.24 401.049 56.672 401.977 57.216C402.905 57.728 403.721 58.336 404.425 59.04L401.689 62.88C400.889 62.016 399.929 61.312 398.809 60.768C397.721 60.224 396.649 59.952 395.593 59.952C394.889 59.952 394.329 60.096 393.913 60.384C393.529 60.64 393.337 61.04 393.337 61.584C393.337 62.064 393.529 62.496 393.913 62.88C394.329 63.232 394.905 63.552 395.641 63.84C396.409 64.128 397.273 64.48 398.233 64.896C399.417 65.344 400.505 65.856 401.497 66.432C402.521 66.976 403.337 67.664 403.945 68.496C404.553 69.328 404.857 70.416 404.857 71.76C404.857 73.968 404.137 75.696 402.697 76.944C401.257 78.16 399.273 78.768 396.745 78.768C395.177 78.768 393.737 78.56 392.425 78.144C391.145 77.728 389.977 77.184 388.921 76.512C387.897 75.808 386.969 75.056 386.137 74.256L389.161 70.368Z" fill="#17414F"/>
<path d="M17.08 130.4C17.08 131.243 17.2613 131.995 17.624 132.656C17.9973 133.317 18.504 133.84 19.144 134.224C19.784 134.608 20.5093 134.8 21.32 134.8C22.1413 134.8 22.8667 134.608 23.496 134.224C24.136 133.84 24.6373 133.317 25 132.656C25.3733 131.995 25.56 131.243 25.56 130.4C25.56 129.557 25.3733 128.805 25 128.144C24.6373 127.483 24.136 126.96 23.496 126.576C22.8667 126.192 22.1413 126 21.32 126C20.5093 126 19.784 126.192 19.144 126.576C18.504 126.96 17.9973 127.483 17.624 128.144C17.2613 128.805 17.08 129.557 17.08 130.4ZM15.64 130.4C15.64 129.579 15.7787 128.821 16.056 128.128C16.344 127.424 16.744 126.816 17.256 126.304C17.768 125.781 18.3707 125.376 19.064 125.088C19.7573 124.789 20.5093 124.64 21.32 124.64C22.1413 124.64 22.8933 124.789 23.576 125.088C24.2693 125.376 24.872 125.781 25.384 126.304C25.896 126.816 26.2907 127.424 26.568 128.128C26.856 128.821 27 129.579 27 130.4C27 131.211 26.856 131.968 26.568 132.672C26.2907 133.376 25.896 133.989 25.384 134.512C24.872 135.024 24.2693 135.429 23.576 135.728C22.8933 136.016 22.1413 136.16 21.32 136.16C20.5093 136.16 19.7573 136.016 19.064 135.728C18.3707 135.429 17.768 135.024 17.256 134.512C16.744 133.989 16.344 133.376 16.056 132.672C15.7787 131.968 15.64 131.211 15.64 130.4ZM33.6406 131.52C33.6406 130.912 33.5073 130.453 33.2406 130.144C32.974 129.835 32.5846 129.68 32.0726 129.68C31.6993 129.68 31.3686 129.76 31.0806 129.92C30.8033 130.069 30.5846 130.283 30.4246 130.56C30.2753 130.837 30.2006 131.157 30.2006 131.52V136H28.9206V128.64H30.2006V129.792C30.446 129.344 30.75 129.013 31.1126 128.8C31.486 128.587 31.9126 128.48 32.3926 128.48C33.1713 128.48 33.7846 128.741 34.2326 129.264C34.6913 129.776 34.9206 130.475 34.9206 131.36V136H33.6406V131.52ZM37.4069 123.52H38.6869V136H37.4069V123.52ZM47.0144 128.64L42.2144 139.52H40.7744L42.7904 134.96L39.9744 128.64H41.4944L43.8304 134.4L43.3024 134.336L45.5744 128.64H47.0144ZM52.0581 128.64H55.7381V129.84H52.0581V128.64ZM53.2581 126.08H54.5381V136H53.2581V126.08ZM58.3819 123.52V136H57.1019V123.52H58.3819ZM61.8219 131.52C61.8219 130.912 61.6885 130.453 61.4219 130.144C61.1659 129.835 60.7765 129.68 60.2539 129.68C59.8805 129.68 59.5499 129.76 59.2619 129.92C58.9845 130.08 58.7659 130.299 58.6059 130.576C58.4565 130.853 58.3819 131.168 58.3819 131.52H57.9659C57.9659 130.933 58.0779 130.416 58.3019 129.968C58.5259 129.509 58.8299 129.147 59.2139 128.88C59.6085 128.613 60.0619 128.48 60.5739 128.48C61.0859 128.48 61.5285 128.587 61.9019 128.8C62.2859 129.013 62.5792 129.333 62.7819 129.76C62.9952 130.187 63.1019 130.72 63.1019 131.36V136H61.8219V131.52ZM68.4361 136.16C67.7535 136.16 67.1455 136 66.6121 135.68C66.0895 135.349 65.6788 134.896 65.3801 134.32C65.0921 133.744 64.9481 133.077 64.9481 132.32C64.9481 131.552 65.0975 130.88 65.3961 130.304C65.7055 129.728 66.1321 129.28 66.6761 128.96C67.2308 128.64 67.8708 128.48 68.5961 128.48C69.3215 128.48 69.9401 128.635 70.4521 128.944C70.9748 129.243 71.3748 129.675 71.6521 130.24C71.9295 130.805 72.0681 131.477 72.0681 132.256C72.0681 132.331 72.0628 132.411 72.0521 132.496C72.0521 132.571 72.0521 132.619 72.0521 132.64H65.7641V131.552H71.0441L70.5321 132.288C70.5641 132.235 70.5961 132.155 70.6281 132.048C70.6601 131.931 70.6761 131.835 70.6761 131.76C70.6761 131.323 70.5855 130.944 70.4041 130.624C70.2335 130.304 69.9935 130.053 69.6841 129.872C69.3748 129.691 69.0121 129.6 68.5961 129.6C68.1055 129.6 67.6841 129.707 67.3321 129.92C66.9908 130.123 66.7241 130.421 66.5321 130.816C66.3508 131.2 66.2548 131.675 66.2441 132.24C66.2441 132.816 66.3348 133.307 66.5161 133.712C66.6975 134.117 66.9641 134.427 67.3161 134.64C67.6681 134.853 68.0948 134.96 68.5961 134.96C69.0975 134.96 69.5401 134.853 69.9241 134.64C70.3081 134.416 70.6335 134.08 70.9001 133.632L71.9401 134.288C71.5561 134.907 71.0708 135.376 70.4841 135.696C69.9081 136.005 69.2255 136.16 68.4361 136.16ZM79.9794 123.52V136H78.6994V123.52H79.9794ZM86.1394 132.32C86.1394 133.109 85.974 133.792 85.6434 134.368C85.3127 134.944 84.87 135.387 84.3154 135.696C83.7714 136.005 83.1634 136.16 82.4914 136.16C81.8834 136.16 81.3447 136.005 80.8754 135.696C80.4167 135.387 80.054 134.944 79.7874 134.368C79.5314 133.792 79.4034 133.109 79.4034 132.32C79.4034 131.52 79.5314 130.837 79.7874 130.272C80.054 129.696 80.4167 129.253 80.8754 128.944C81.3447 128.635 81.8834 128.48 82.4914 128.48C83.1634 128.48 83.7714 128.635 84.3154 128.944C84.87 129.253 85.3127 129.696 85.6434 130.272C85.974 130.837 86.1394 131.52 86.1394 132.32ZM84.8434 132.32C84.8434 131.755 84.726 131.275 84.4914 130.88C84.2674 130.485 83.9634 130.187 83.5794 129.984C83.206 129.781 82.79 129.68 82.3314 129.68C81.958 129.68 81.59 129.781 81.2274 129.984C80.8647 130.187 80.566 130.485 80.3314 130.88C80.0967 131.275 79.9794 131.755 79.9794 132.32C79.9794 132.885 80.0967 133.365 80.3314 133.76C80.566 134.155 80.8647 134.453 81.2274 134.656C81.59 134.859 81.958 134.96 82.3314 134.96C82.79 134.96 83.206 134.859 83.5794 134.656C83.9634 134.453 84.2674 134.155 84.4914 133.76C84.726 133.365 84.8434 132.885 84.8434 132.32ZM90.8324 136.16C90.1497 136.16 89.5417 136 89.0084 135.68C88.4857 135.349 88.075 134.896 87.7764 134.32C87.4884 133.744 87.3444 133.077 87.3444 132.32C87.3444 131.552 87.4937 130.88 87.7924 130.304C88.1017 129.728 88.5284 129.28 89.0724 128.96C89.627 128.64 90.267 128.48 90.9924 128.48C91.7177 128.48 92.3364 128.635 92.8484 128.944C93.371 129.243 93.771 129.675 94.0484 130.24C94.3257 130.805 94.4644 131.477 94.4644 132.256C94.4644 132.331 94.459 132.411 94.4484 132.496C94.4484 132.571 94.4484 132.619 94.4484 132.64H88.1604V131.552H93.4404L92.9284 132.288C92.9604 132.235 92.9924 132.155 93.0244 132.048C93.0564 131.931 93.0724 131.835 93.0724 131.76C93.0724 131.323 92.9817 130.944 92.8004 130.624C92.6297 130.304 92.3897 130.053 92.0804 129.872C91.771 129.691 91.4084 129.6 90.9924 129.6C90.5017 129.6 90.0804 129.707 89.7284 129.92C89.387 130.123 89.1204 130.421 88.9284 130.816C88.747 131.2 88.651 131.675 88.6404 132.24C88.6404 132.816 88.731 133.307 88.9124 133.712C89.0937 134.117 89.3604 134.427 89.7124 134.64C90.0644 134.853 90.491 134.96 90.9924 134.96C91.4937 134.96 91.9364 134.853 92.3204 134.64C92.7044 134.416 93.0297 134.08 93.2964 133.632L94.3364 134.288C93.9524 134.907 93.467 135.376 92.8804 135.696C92.3044 136.005 91.6217 136.16 90.8324 136.16ZM96.6027 133.744C96.7521 133.968 96.9227 134.176 97.1147 134.368C97.3067 134.56 97.5254 134.715 97.7707 134.832C98.0267 134.939 98.3041 134.992 98.6027 134.992C98.9654 134.992 99.2481 134.912 99.4507 134.752C99.6641 134.581 99.7707 134.352 99.7707 134.064C99.7707 133.808 99.6854 133.595 99.5147 133.424C99.3547 133.243 99.1467 133.093 98.8907 132.976C98.6347 132.848 98.3627 132.731 98.0747 132.624C97.7547 132.496 97.4294 132.347 97.0987 132.176C96.7787 131.995 96.5067 131.765 96.2827 131.488C96.0694 131.2 95.9627 130.843 95.9627 130.416C95.9627 129.979 96.0747 129.616 96.2987 129.328C96.5334 129.04 96.8321 128.827 97.1947 128.688C97.5681 128.549 97.9521 128.48 98.3467 128.48C98.7414 128.48 99.1094 128.544 99.4507 128.672C99.8027 128.8 100.112 128.971 100.379 129.184C100.645 129.397 100.853 129.643 101.003 129.92L99.9787 130.576C99.7761 130.299 99.5201 130.069 99.2107 129.888C98.9121 129.707 98.5707 129.616 98.1867 129.616C97.9201 129.616 97.6907 129.675 97.4987 129.792C97.3067 129.909 97.2107 130.091 97.2107 130.336C97.2107 130.528 97.2854 130.699 97.4347 130.848C97.5841 130.997 97.7761 131.131 98.0107 131.248C98.2454 131.365 98.4907 131.477 98.7467 131.584C99.1734 131.755 99.5627 131.941 99.9147 132.144C100.267 132.336 100.544 132.571 100.747 132.848C100.96 133.125 101.067 133.483 101.067 133.92C101.067 134.56 100.832 135.093 100.363 135.52C99.9041 135.947 99.2961 136.16 98.5387 136.16C98.0481 136.16 97.6054 136.075 97.2107 135.904C96.8161 135.723 96.4801 135.493 96.2027 135.216C95.9361 134.939 95.7334 134.656 95.5947 134.368L96.6027 133.744ZM101.712 128.64H105.392V129.84H101.712V128.64ZM102.912 126.08H104.192V136H102.912V126.08ZM110.513 128.64H111.953L113.793 133.424L115.793 128.08L117.937 133.456L119.793 128.64H121.233L118.033 136.56L115.809 131.2L113.713 136.56L110.513 128.64ZM123.867 123.52V136H122.587V123.52H123.867ZM127.307 131.52C127.307 130.912 127.174 130.453 126.907 130.144C126.651 129.835 126.262 129.68 125.739 129.68C125.366 129.68 125.035 129.76 124.747 129.92C124.47 130.08 124.251 130.299 124.091 130.576C123.942 130.853 123.867 131.168 123.867 131.52H123.451C123.451 130.933 123.563 130.416 123.787 129.968C124.011 129.509 124.315 129.147 124.699 128.88C125.094 128.613 125.547 128.48 126.059 128.48C126.571 128.48 127.014 128.587 127.387 128.8C127.771 129.013 128.065 129.333 128.267 129.76C128.481 130.187 128.587 130.72 128.587 131.36V136H127.307V131.52ZM133.922 136.16C133.239 136.16 132.631 136 132.098 135.68C131.575 135.349 131.164 134.896 130.866 134.32C130.578 133.744 130.434 133.077 130.434 132.32C130.434 131.552 130.583 130.88 130.882 130.304C131.191 129.728 131.618 129.28 132.162 128.96C132.716 128.64 133.356 128.48 134.082 128.48C134.807 128.48 135.426 128.635 135.938 128.944C136.46 129.243 136.86 129.675 137.138 130.24C137.415 130.805 137.554 131.477 137.554 132.256C137.554 132.331 137.548 132.411 137.538 132.496C137.538 132.571 137.538 132.619 137.538 132.64H131.25V131.552H136.53L136.018 132.288C136.05 132.235 136.082 132.155 136.114 132.048C136.146 131.931 136.162 131.835 136.162 131.76C136.162 131.323 136.071 130.944 135.89 130.624C135.719 130.304 135.479 130.053 135.17 129.872C134.86 129.691 134.498 129.6 134.082 129.6C133.591 129.6 133.17 129.707 132.818 129.92C132.476 130.123 132.21 130.421 132.018 130.816C131.836 131.2 131.74 131.675 131.73 132.24C131.73 132.816 131.82 133.307 132.002 133.712C132.183 134.117 132.45 134.427 132.802 134.64C133.154 134.853 133.58 134.96 134.082 134.96C134.583 134.96 135.026 134.853 135.41 134.64C135.794 134.416 136.119 134.08 136.386 133.632L137.426 134.288C137.042 134.907 136.556 135.376 135.97 135.696C135.394 136.005 134.711 136.16 133.922 136.16ZM144.108 131.52C144.108 130.912 143.975 130.453 143.708 130.144C143.441 129.835 143.052 129.68 142.54 129.68C142.167 129.68 141.836 129.76 141.548 129.92C141.271 130.069 141.052 130.283 140.892 130.56C140.743 130.837 140.668 131.157 140.668 131.52V136H139.388V128.64H140.668V129.792C140.913 129.344 141.217 129.013 141.58 128.8C141.953 128.587 142.38 128.48 142.86 128.48C143.639 128.48 144.252 128.741 144.7 129.264C145.159 129.776 145.388 130.475 145.388 131.36V136H144.108V131.52ZM158.591 128.64L153.791 139.52H152.351L154.367 134.96L151.551 128.64H153.071L155.407 134.4L154.879 134.336L157.151 128.64H158.591ZM159.004 132.32C159.004 131.573 159.169 130.912 159.5 130.336C159.841 129.76 160.3 129.307 160.876 128.976C161.452 128.645 162.097 128.48 162.812 128.48C163.537 128.48 164.182 128.645 164.748 128.976C165.324 129.307 165.777 129.76 166.108 130.336C166.449 130.912 166.62 131.573 166.62 132.32C166.62 133.056 166.449 133.717 166.108 134.304C165.777 134.88 165.324 135.333 164.748 135.664C164.182 135.995 163.537 136.16 162.812 136.16C162.097 136.16 161.452 135.995 160.876 135.664C160.3 135.333 159.841 134.88 159.5 134.304C159.169 133.717 159.004 133.056 159.004 132.32ZM160.3 132.32C160.3 132.832 160.406 133.285 160.62 133.68C160.844 134.075 161.142 134.389 161.516 134.624C161.9 134.848 162.332 134.96 162.812 134.96C163.292 134.96 163.718 134.848 164.092 134.624C164.476 134.389 164.774 134.075 164.988 133.68C165.212 133.285 165.324 132.832 165.324 132.32C165.324 131.808 165.212 131.355 164.988 130.96C164.774 130.555 164.476 130.24 164.092 130.016C163.718 129.792 163.292 129.68 162.812 129.68C162.332 129.68 161.9 129.792 161.516 130.016C161.142 130.24 160.844 130.555 160.62 130.96C160.406 131.355 160.3 131.808 160.3 132.32ZM169.738 133.12C169.738 133.707 169.871 134.16 170.138 134.48C170.405 134.8 170.794 134.96 171.306 134.96C171.679 134.96 172.005 134.885 172.282 134.736C172.57 134.576 172.789 134.357 172.938 134.08C173.098 133.803 173.178 133.483 173.178 133.12V128.64H174.458V136H173.178V134.848C172.933 135.285 172.629 135.616 172.266 135.84C171.903 136.053 171.477 136.16 170.986 136.16C170.218 136.16 169.605 135.899 169.146 135.376C168.687 134.853 168.458 134.155 168.458 133.28V128.64H169.738V133.12ZM182.397 132.32C182.397 132.832 182.504 133.285 182.717 133.68C182.941 134.075 183.24 134.389 183.613 134.624C183.997 134.848 184.429 134.96 184.909 134.96C185.304 134.96 185.672 134.901 186.013 134.784C186.365 134.656 186.669 134.491 186.925 134.288C187.181 134.075 187.363 133.851 187.469 133.616V135.216C187.213 135.515 186.845 135.749 186.365 135.92C185.896 136.08 185.411 136.16 184.909 136.16C184.195 136.16 183.549 135.995 182.973 135.664C182.397 135.333 181.939 134.88 181.597 134.304C181.267 133.717 181.101 133.056 181.101 132.32C181.101 131.573 181.267 130.912 181.597 130.336C181.939 129.76 182.397 129.307 182.973 128.976C183.549 128.645 184.195 128.48 184.909 128.48C185.411 128.48 185.896 128.565 186.365 128.736C186.845 128.896 187.213 129.125 187.469 129.424V131.024C187.363 130.779 187.181 130.555 186.925 130.352C186.669 130.149 186.365 129.989 186.013 129.872C185.672 129.744 185.304 129.68 184.909 129.68C184.429 129.68 183.997 129.792 183.613 130.016C183.24 130.24 182.941 130.555 182.717 130.96C182.504 131.355 182.397 131.808 182.397 132.32ZM190.822 123.52V136H189.542V123.52H190.822ZM194.262 131.52C194.262 130.912 194.129 130.453 193.862 130.144C193.606 129.835 193.217 129.68 192.694 129.68C192.321 129.68 191.99 129.76 191.702 129.92C191.425 130.08 191.206 130.299 191.046 130.576C190.897 130.853 190.822 131.168 190.822 131.52H190.406C190.406 130.933 190.518 130.416 190.742 129.968C190.966 129.509 191.27 129.147 191.654 128.88C192.049 128.613 192.502 128.48 193.014 128.48C193.526 128.48 193.969 128.587 194.342 128.8C194.726 129.013 195.019 129.333 195.222 129.76C195.435 130.187 195.542 130.72 195.542 131.36V136H194.262V131.52ZM197.388 132.32C197.388 131.573 197.553 130.912 197.884 130.336C198.225 129.76 198.684 129.307 199.26 128.976C199.836 128.645 200.481 128.48 201.196 128.48C201.921 128.48 202.567 128.645 203.132 128.976C203.708 129.307 204.161 129.76 204.492 130.336C204.833 130.912 205.004 131.573 205.004 132.32C205.004 133.056 204.833 133.717 204.492 134.304C204.161 134.88 203.708 135.333 203.132 135.664C202.567 135.995 201.921 136.16 201.196 136.16C200.481 136.16 199.836 135.995 199.26 135.664C198.684 135.333 198.225 134.88 197.884 134.304C197.553 133.717 197.388 133.056 197.388 132.32ZM198.684 132.32C198.684 132.832 198.791 133.285 199.004 133.68C199.228 134.075 199.527 134.389 199.9 134.624C200.284 134.848 200.716 134.96 201.196 134.96C201.676 134.96 202.103 134.848 202.476 134.624C202.86 134.389 203.159 134.075 203.372 133.68C203.596 133.285 203.708 132.832 203.708 132.32C203.708 131.808 203.596 131.355 203.372 130.96C203.159 130.555 202.86 130.24 202.476 130.016C202.103 129.792 201.676 129.68 201.196 129.68C200.716 129.68 200.284 129.792 199.9 130.016C199.527 130.24 199.228 130.555 199.004 130.96C198.791 131.355 198.684 131.808 198.684 132.32ZM206.203 132.32C206.203 131.573 206.368 130.912 206.699 130.336C207.04 129.76 207.499 129.307 208.075 128.976C208.651 128.645 209.296 128.48 210.011 128.48C210.736 128.48 211.381 128.645 211.947 128.976C212.523 129.307 212.976 129.76 213.307 130.336C213.648 130.912 213.819 131.573 213.819 132.32C213.819 133.056 213.648 133.717 213.307 134.304C212.976 134.88 212.523 135.333 211.947 135.664C211.381 135.995 210.736 136.16 210.011 136.16C209.296 136.16 208.651 135.995 208.075 135.664C207.499 135.333 207.04 134.88 206.699 134.304C206.368 133.717 206.203 133.056 206.203 132.32ZM207.499 132.32C207.499 132.832 207.605 133.285 207.819 133.68C208.043 134.075 208.341 134.389 208.715 134.624C209.099 134.848 209.531 134.96 210.011 134.96C210.491 134.96 210.917 134.848 211.291 134.624C211.675 134.389 211.973 134.075 212.187 133.68C212.411 133.285 212.523 132.832 212.523 132.32C212.523 131.808 212.411 131.355 212.187 130.96C211.973 130.555 211.675 130.24 211.291 130.016C210.917 129.792 210.491 129.68 210.011 129.68C209.531 129.68 209.099 129.792 208.715 130.016C208.341 130.24 208.043 130.555 207.819 130.96C207.605 131.355 207.499 131.808 207.499 132.32ZM215.961 133.744C216.11 133.968 216.281 134.176 216.473 134.368C216.665 134.56 216.884 134.715 217.129 134.832C217.385 134.939 217.662 134.992 217.961 134.992C218.324 134.992 218.606 134.912 218.809 134.752C219.022 134.581 219.129 134.352 219.129 134.064C219.129 133.808 219.044 133.595 218.873 133.424C218.713 133.243 218.505 133.093 218.249 132.976C217.993 132.848 217.721 132.731 217.433 132.624C217.113 132.496 216.788 132.347 216.457 132.176C216.137 131.995 215.865 131.765 215.641 131.488C215.428 131.2 215.321 130.843 215.321 130.416C215.321 129.979 215.433 129.616 215.657 129.328C215.892 129.04 216.19 128.827 216.553 128.688C216.926 128.549 217.31 128.48 217.705 128.48C218.1 128.48 218.468 128.544 218.809 128.672C219.161 128.8 219.47 128.971 219.737 129.184C220.004 129.397 220.212 129.643 220.361 129.92L219.337 130.576C219.134 130.299 218.878 130.069 218.569 129.888C218.27 129.707 217.929 129.616 217.545 129.616C217.278 129.616 217.049 129.675 216.857 129.792C216.665 129.909 216.569 130.091 216.569 130.336C216.569 130.528 216.644 130.699 216.793 130.848C216.942 130.997 217.134 131.131 217.369 131.248C217.604 131.365 217.849 131.477 218.105 131.584C218.532 131.755 218.921 131.941 219.273 132.144C219.625 132.336 219.902 132.571 220.105 132.848C220.318 133.125 220.425 133.483 220.425 133.92C220.425 134.56 220.19 135.093 219.721 135.52C219.262 135.947 218.654 136.16 217.897 136.16C217.406 136.16 216.964 136.075 216.569 135.904C216.174 135.723 215.838 135.493 215.561 135.216C215.294 134.939 215.092 134.656 214.953 134.368L215.961 133.744ZM225.038 136.16C224.355 136.16 223.747 136 223.214 135.68C222.691 135.349 222.281 134.896 221.982 134.32C221.694 133.744 221.55 133.077 221.55 132.32C221.55 131.552 221.699 130.88 221.998 130.304C222.307 129.728 222.734 129.28 223.278 128.96C223.833 128.64 224.473 128.48 225.198 128.48C225.923 128.48 226.542 128.635 227.054 128.944C227.577 129.243 227.977 129.675 228.254 130.24C228.531 130.805 228.67 131.477 228.67 132.256C228.67 132.331 228.665 132.411 228.654 132.496C228.654 132.571 228.654 132.619 228.654 132.64H222.366V131.552H227.646L227.134 132.288C227.166 132.235 227.198 132.155 227.23 132.048C227.262 131.931 227.278 131.835 227.278 131.76C227.278 131.323 227.187 130.944 227.006 130.624C226.835 130.304 226.595 130.053 226.286 129.872C225.977 129.691 225.614 129.6 225.198 129.6C224.707 129.6 224.286 129.707 223.934 129.92C223.593 130.123 223.326 130.421 223.134 130.816C222.953 131.2 222.857 131.675 222.846 132.24C222.846 132.816 222.937 133.307 223.118 133.712C223.299 134.117 223.566 134.427 223.918 134.64C224.27 134.853 224.697 134.96 225.198 134.96C225.699 134.96 226.142 134.853 226.526 134.64C226.91 134.416 227.235 134.08 227.502 133.632L228.542 134.288C228.158 134.907 227.673 135.376 227.086 135.696C226.51 136.005 225.827 136.16 225.038 136.16ZM236.581 139.52H235.301V128.64H236.581V139.52ZM242.741 132.32C242.741 133.109 242.576 133.792 242.245 134.368C241.915 134.944 241.472 135.387 240.917 135.696C240.373 136.005 239.765 136.16 239.093 136.16C238.485 136.16 237.947 136.005 237.477 135.696C237.019 135.387 236.656 134.944 236.389 134.368C236.133 133.792 236.005 133.109 236.005 132.32C236.005 131.52 236.133 130.837 236.389 130.272C236.656 129.696 237.019 129.253 237.477 128.944C237.947 128.635 238.485 128.48 239.093 128.48C239.765 128.48 240.373 128.635 240.917 128.944C241.472 129.253 241.915 129.696 242.245 130.272C242.576 130.837 242.741 131.52 242.741 132.32ZM241.445 132.32C241.445 131.755 241.328 131.275 241.093 130.88C240.869 130.485 240.565 130.187 240.181 129.984C239.808 129.781 239.392 129.68 238.933 129.68C238.56 129.68 238.192 129.781 237.829 129.984C237.467 130.187 237.168 130.485 236.933 130.88C236.699 131.275 236.581 131.755 236.581 132.32C236.581 132.885 236.699 133.365 236.933 133.76C237.168 134.155 237.467 134.453 237.829 134.656C238.192 134.859 238.56 134.96 238.933 134.96C239.392 134.96 239.808 134.859 240.181 134.656C240.565 134.453 240.869 134.155 241.093 133.76C241.328 133.365 241.445 132.885 241.445 132.32ZM245.866 128.64V136H244.586V128.64H245.866ZM248.09 130.048C247.92 129.92 247.765 129.829 247.626 129.776C247.488 129.712 247.312 129.68 247.098 129.68C246.778 129.68 246.528 129.76 246.346 129.92C246.165 130.08 246.037 130.299 245.962 130.576C245.898 130.853 245.866 131.168 245.866 131.52H245.29C245.29 130.933 245.392 130.416 245.594 129.968C245.808 129.509 246.08 129.147 246.41 128.88C246.741 128.613 247.077 128.48 247.418 128.48C247.685 128.48 247.93 128.517 248.154 128.592C248.389 128.656 248.602 128.789 248.794 128.992L248.09 130.048ZM249.276 132.32C249.276 131.573 249.442 130.912 249.772 130.336C250.114 129.76 250.572 129.307 251.148 128.976C251.724 128.645 252.37 128.48 253.084 128.48C253.81 128.48 254.455 128.645 255.02 128.976C255.596 129.307 256.05 129.76 256.38 130.336C256.722 130.912 256.892 131.573 256.892 132.32C256.892 133.056 256.722 133.717 256.38 134.304C256.05 134.88 255.596 135.333 255.02 135.664C254.455 135.995 253.81 136.16 253.084 136.16C252.37 136.16 251.724 135.995 251.148 135.664C250.572 135.333 250.114 134.88 249.772 134.304C249.442 133.717 249.276 133.056 249.276 132.32ZM250.572 132.32C250.572 132.832 250.679 133.285 250.892 133.68C251.116 134.075 251.415 134.389 251.788 134.624C252.172 134.848 252.604 134.96 253.084 134.96C253.564 134.96 253.991 134.848 254.364 134.624C254.748 134.389 255.047 134.075 255.26 133.68C255.484 133.285 255.596 132.832 255.596 132.32C255.596 131.808 255.484 131.355 255.26 130.96C255.047 130.555 254.748 130.24 254.364 130.016C253.991 129.792 253.564 129.68 253.084 129.68C252.604 129.68 252.172 129.792 251.788 130.016C251.415 130.24 251.116 130.555 250.892 130.96C250.679 131.355 250.572 131.808 250.572 132.32ZM264.251 123.52H265.531V136H264.251V123.52ZM258.091 132.32C258.091 131.52 258.256 130.837 258.587 130.272C258.917 129.696 259.36 129.253 259.915 128.944C260.469 128.635 261.077 128.48 261.739 128.48C262.357 128.48 262.896 128.635 263.355 128.944C263.813 129.253 264.171 129.696 264.427 130.272C264.693 130.837 264.827 131.52 264.827 132.32C264.827 133.109 264.693 133.792 264.427 134.368C264.171 134.944 263.813 135.387 263.355 135.696C262.896 136.005 262.357 136.16 261.739 136.16C261.077 136.16 260.469 136.005 259.915 135.696C259.36 135.387 258.917 134.944 258.587 134.368C258.256 133.792 258.091 133.109 258.091 132.32ZM259.387 132.32C259.387 132.885 259.499 133.365 259.723 133.76C259.957 134.155 260.267 134.453 260.651 134.656C261.035 134.859 261.451 134.96 261.899 134.96C262.272 134.96 262.64 134.859 263.003 134.656C263.365 134.453 263.664 134.155 263.899 133.76C264.133 133.365 264.251 132.885 264.251 132.32C264.251 131.755 264.133 131.275 263.899 130.88C263.664 130.485 263.365 130.187 263.003 129.984C262.64 129.781 262.272 129.68 261.899 129.68C261.451 129.68 261.035 129.781 260.651 129.984C260.267 130.187 259.957 130.485 259.723 130.88C259.499 131.275 259.387 131.755 259.387 132.32ZM269.216 133.12C269.216 133.707 269.349 134.16 269.616 134.48C269.882 134.8 270.272 134.96 270.784 134.96C271.157 134.96 271.482 134.885 271.76 134.736C272.048 134.576 272.266 134.357 272.416 134.08C272.576 133.803 272.656 133.483 272.656 133.12V128.64H273.936V136H272.656V134.848C272.41 135.285 272.106 135.616 271.744 135.84C271.381 136.053 270.954 136.16 270.464 136.16C269.696 136.16 269.082 135.899 268.624 135.376C268.165 134.853 267.936 134.155 267.936 133.28V128.64H269.216V133.12ZM276.998 132.32C276.998 132.832 277.105 133.285 277.318 133.68C277.542 134.075 277.841 134.389 278.214 134.624C278.598 134.848 279.03 134.96 279.51 134.96C279.905 134.96 280.273 134.901 280.614 134.784C280.966 134.656 281.27 134.491 281.526 134.288C281.782 134.075 281.963 133.851 282.07 133.616V135.216C281.814 135.515 281.446 135.749 280.966 135.92C280.497 136.08 280.011 136.16 279.51 136.16C278.795 136.16 278.15 135.995 277.574 135.664C276.998 135.333 276.539 134.88 276.198 134.304C275.867 133.717 275.702 133.056 275.702 132.32C275.702 131.573 275.867 130.912 276.198 130.336C276.539 129.76 276.998 129.307 277.574 128.976C278.15 128.645 278.795 128.48 279.51 128.48C280.011 128.48 280.497 128.565 280.966 128.736C281.446 128.896 281.814 129.125 282.07 129.424V131.024C281.963 130.779 281.782 130.555 281.526 130.352C281.27 130.149 280.966 129.989 280.614 129.872C280.273 129.744 279.905 129.68 279.51 129.68C279.03 129.68 278.598 129.792 278.214 130.016C277.841 130.24 277.542 130.555 277.318 130.96C277.105 131.355 276.998 131.808 276.998 132.32ZM283.023 128.64H286.703V129.84H283.023V128.64ZM284.223 126.08H285.503V136H284.223V126.08ZM288.37 133.744C288.52 133.968 288.69 134.176 288.882 134.368C289.074 134.56 289.293 134.715 289.538 134.832C289.794 134.939 290.072 134.992 290.37 134.992C290.733 134.992 291.016 134.912 291.218 134.752C291.432 134.581 291.538 134.352 291.538 134.064C291.538 133.808 291.453 133.595 291.282 133.424C291.122 133.243 290.914 133.093 290.658 132.976C290.402 132.848 290.13 132.731 289.842 132.624C289.522 132.496 289.197 132.347 288.866 132.176C288.546 131.995 288.274 131.765 288.05 131.488C287.837 131.2 287.73 130.843 287.73 130.416C287.73 129.979 287.842 129.616 288.066 129.328C288.301 129.04 288.6 128.827 288.962 128.688C289.336 128.549 289.72 128.48 290.114 128.48C290.509 128.48 290.877 128.544 291.218 128.672C291.57 128.8 291.88 128.971 292.146 129.184C292.413 129.397 292.621 129.643 292.77 129.92L291.746 130.576C291.544 130.299 291.288 130.069 290.978 129.888C290.68 129.707 290.338 129.616 289.954 129.616C289.688 129.616 289.458 129.675 289.266 129.792C289.074 129.909 288.978 130.091 288.978 130.336C288.978 130.528 289.053 130.699 289.202 130.848C289.352 130.997 289.544 131.131 289.778 131.248C290.013 131.365 290.258 131.477 290.514 131.584C290.941 131.755 291.33 131.941 291.682 132.144C292.034 132.336 292.312 132.571 292.514 132.848C292.728 133.125 292.834 133.483 292.834 133.92C292.834 134.56 292.6 135.093 292.13 135.52C291.672 135.947 291.064 136.16 290.306 136.16C289.816 136.16 289.373 136.075 288.978 135.904C288.584 135.723 288.248 135.493 287.97 135.216C287.704 134.939 287.501 134.656 287.362 134.368L288.37 133.744ZM298.836 132.32C298.836 131.573 299.002 130.912 299.332 130.336C299.674 129.76 300.132 129.307 300.708 128.976C301.284 128.645 301.93 128.48 302.644 128.48C303.37 128.48 304.015 128.645 304.58 128.976C305.156 129.307 305.61 129.76 305.94 130.336C306.282 130.912 306.452 131.573 306.452 132.32C306.452 133.056 306.282 133.717 305.94 134.304C305.61 134.88 305.156 135.333 304.58 135.664C304.015 135.995 303.37 136.16 302.644 136.16C301.93 136.16 301.284 135.995 300.708 135.664C300.132 135.333 299.674 134.88 299.332 134.304C299.002 133.717 298.836 133.056 298.836 132.32ZM300.132 132.32C300.132 132.832 300.239 133.285 300.452 133.68C300.676 134.075 300.975 134.389 301.348 134.624C301.732 134.848 302.164 134.96 302.644 134.96C303.124 134.96 303.551 134.848 303.924 134.624C304.308 134.389 304.607 134.075 304.82 133.68C305.044 133.285 305.156 132.832 305.156 132.32C305.156 131.808 305.044 131.355 304.82 130.96C304.607 130.555 304.308 130.24 303.924 130.016C303.551 129.792 303.124 129.68 302.644 129.68C302.164 129.68 301.732 129.792 301.348 130.016C300.975 130.24 300.676 130.555 300.452 130.96C300.239 131.355 300.132 131.808 300.132 132.32ZM307.731 128.64H311.411V129.84H307.731V128.64ZM311.283 125.056C311.176 124.875 311.048 124.763 310.899 124.72C310.76 124.667 310.627 124.64 310.499 124.64C310.339 124.64 310.2 124.688 310.083 124.784C309.976 124.869 309.891 125.019 309.827 125.232C309.763 125.445 309.731 125.728 309.731 126.08V136H308.451V125.92C308.451 125.333 308.536 124.853 308.707 124.48C308.877 124.107 309.117 123.829 309.427 123.648C309.747 123.456 310.131 123.36 310.579 123.36C310.813 123.36 311.021 123.392 311.203 123.456C311.384 123.52 311.539 123.6 311.667 123.696C311.805 123.792 311.912 123.893 311.987 124L311.283 125.056ZM312.389 128.64H316.069V129.84H312.389V128.64ZM315.941 125.056C315.834 124.875 315.706 124.763 315.557 124.72C315.418 124.667 315.285 124.64 315.157 124.64C314.997 124.64 314.858 124.688 314.741 124.784C314.634 124.869 314.549 125.019 314.485 125.232C314.421 125.445 314.389 125.728 314.389 126.08V136H313.109V125.92C313.109 125.333 313.194 124.853 313.365 124.48C313.535 124.107 313.775 123.829 314.085 123.648C314.405 123.456 314.789 123.36 315.237 123.36C315.471 123.36 315.679 123.392 315.861 123.456C316.042 123.52 316.197 123.6 316.325 123.696C316.463 123.792 316.57 123.893 316.645 124L315.941 125.056ZM320.455 136.16C319.772 136.16 319.164 136 318.631 135.68C318.108 135.349 317.698 134.896 317.399 134.32C317.111 133.744 316.967 133.077 316.967 132.32C316.967 131.552 317.116 130.88 317.415 130.304C317.724 129.728 318.151 129.28 318.695 128.96C319.25 128.64 319.89 128.48 320.615 128.48C321.34 128.48 321.959 128.635 322.471 128.944C322.994 129.243 323.394 129.675 323.671 130.24C323.948 130.805 324.087 131.477 324.087 132.256C324.087 132.331 324.082 132.411 324.071 132.496C324.071 132.571 324.071 132.619 324.071 132.64H317.783V131.552H323.063L322.551 132.288C322.583 132.235 322.615 132.155 322.647 132.048C322.679 131.931 322.695 131.835 322.695 131.76C322.695 131.323 322.604 130.944 322.423 130.624C322.252 130.304 322.012 130.053 321.703 129.872C321.394 129.691 321.031 129.6 320.615 129.6C320.124 129.6 319.703 129.707 319.351 129.92C319.01 130.123 318.743 130.421 318.551 130.816C318.37 131.2 318.274 131.675 318.263 132.24C318.263 132.816 318.354 133.307 318.535 133.712C318.716 134.117 318.983 134.427 319.335 134.64C319.687 134.853 320.114 134.96 320.615 134.96C321.116 134.96 321.559 134.853 321.943 134.64C322.327 134.416 322.652 134.08 322.919 133.632L323.959 134.288C323.575 134.907 323.09 135.376 322.503 135.696C321.927 136.005 321.244 136.16 320.455 136.16ZM327.201 128.64V136H325.921V128.64H327.201ZM329.425 130.048C329.255 129.92 329.1 129.829 328.961 129.776C328.823 129.712 328.647 129.68 328.433 129.68C328.113 129.68 327.863 129.76 327.681 129.92C327.5 130.08 327.372 130.299 327.297 130.576C327.233 130.853 327.201 131.168 327.201 131.52H326.625C326.625 130.933 326.727 130.416 326.929 129.968C327.143 129.509 327.415 129.147 327.745 128.88C328.076 128.613 328.412 128.48 328.753 128.48C329.02 128.48 329.265 128.517 329.489 128.592C329.724 128.656 329.937 128.789 330.129 128.992L329.425 130.048ZM334.099 136.16C333.417 136.16 332.809 136 332.275 135.68C331.753 135.349 331.342 134.896 331.043 134.32C330.755 133.744 330.611 133.077 330.611 132.32C330.611 131.552 330.761 130.88 331.059 130.304C331.369 129.728 331.795 129.28 332.339 128.96C332.894 128.64 333.534 128.48 334.259 128.48C334.985 128.48 335.603 128.635 336.115 128.944C336.638 129.243 337.038 129.675 337.315 130.24C337.593 130.805 337.731 131.477 337.731 132.256C337.731 132.331 337.726 132.411 337.715 132.496C337.715 132.571 337.715 132.619 337.715 132.64H331.427V131.552H336.707L336.195 132.288C336.227 132.235 336.259 132.155 336.291 132.048C336.323 131.931 336.339 131.835 336.339 131.76C336.339 131.323 336.249 130.944 336.067 130.624C335.897 130.304 335.657 130.053 335.347 129.872C335.038 129.691 334.675 129.6 334.259 129.6C333.769 129.6 333.347 129.707 332.995 129.92C332.654 130.123 332.387 130.421 332.195 130.816C332.014 131.2 331.918 131.675 331.907 132.24C331.907 132.816 331.998 133.307 332.179 133.712C332.361 134.117 332.627 134.427 332.979 134.64C333.331 134.853 333.758 134.96 334.259 134.96C334.761 134.96 335.203 134.853 335.587 134.64C335.971 134.416 336.297 134.08 336.563 133.632L337.603 134.288C337.219 134.907 336.734 135.376 336.147 135.696C335.571 136.005 334.889 136.16 334.099 136.16ZM345.086 123.52H346.366V136H345.086V123.52ZM338.926 132.32C338.926 131.52 339.091 130.837 339.422 130.272C339.752 129.696 340.195 129.253 340.75 128.944C341.304 128.635 341.912 128.48 342.574 128.48C343.192 128.48 343.731 128.635 344.19 128.944C344.648 129.253 345.006 129.696 345.262 130.272C345.528 130.837 345.662 131.52 345.662 132.32C345.662 133.109 345.528 133.792 345.262 134.368C345.006 134.944 344.648 135.387 344.19 135.696C343.731 136.005 343.192 136.16 342.574 136.16C341.912 136.16 341.304 136.005 340.75 135.696C340.195 135.387 339.752 134.944 339.422 134.368C339.091 133.792 338.926 133.109 338.926 132.32ZM340.222 132.32C340.222 132.885 340.334 133.365 340.558 133.76C340.792 134.155 341.102 134.453 341.486 134.656C341.87 134.859 342.286 134.96 342.734 134.96C343.107 134.96 343.475 134.859 343.838 134.656C344.2 134.453 344.499 134.155 344.734 133.76C344.968 133.365 345.086 132.885 345.086 132.32C345.086 131.755 344.968 131.275 344.734 130.88C344.499 130.485 344.2 130.187 343.838 129.984C343.475 129.781 343.107 129.68 342.734 129.68C342.286 129.68 341.87 129.781 341.486 129.984C341.102 130.187 340.792 130.485 340.558 130.88C340.334 131.275 340.222 131.755 340.222 132.32ZM353.008 132.32C353.008 131.573 353.173 130.912 353.504 130.336C353.845 129.76 354.304 129.307 354.88 128.976C355.456 128.645 356.101 128.48 356.816 128.48C357.541 128.48 358.186 128.645 358.752 128.976C359.328 129.307 359.781 129.76 360.112 130.336C360.453 130.912 360.624 131.573 360.624 132.32C360.624 133.056 360.453 133.717 360.112 134.304C359.781 134.88 359.328 135.333 358.752 135.664C358.186 135.995 357.541 136.16 356.816 136.16C356.101 136.16 355.456 135.995 354.88 135.664C354.304 135.333 353.845 134.88 353.504 134.304C353.173 133.717 353.008 133.056 353.008 132.32ZM354.304 132.32C354.304 132.832 354.41 133.285 354.624 133.68C354.848 134.075 355.146 134.389 355.52 134.624C355.904 134.848 356.336 134.96 356.816 134.96C357.296 134.96 357.722 134.848 358.096 134.624C358.48 134.389 358.778 134.075 358.992 133.68C359.216 133.285 359.328 132.832 359.328 132.32C359.328 131.808 359.216 131.355 358.992 130.96C358.778 130.555 358.48 130.24 358.096 130.016C357.722 129.792 357.296 129.68 356.816 129.68C356.336 129.68 355.904 129.792 355.52 130.016C355.146 130.24 354.848 130.555 354.624 130.96C354.41 131.355 354.304 131.808 354.304 132.32ZM367.182 131.52C367.182 130.912 367.049 130.453 366.782 130.144C366.515 129.835 366.126 129.68 365.614 129.68C365.241 129.68 364.91 129.76 364.622 129.92C364.345 130.069 364.126 130.283 363.966 130.56C363.817 130.837 363.742 131.157 363.742 131.52V136H362.462V128.64H363.742V129.792C363.987 129.344 364.291 129.013 364.654 128.8C365.027 128.587 365.454 128.48 365.934 128.48C366.713 128.48 367.326 128.741 367.774 129.264C368.233 129.776 368.462 130.475 368.462 131.36V136H367.182V131.52ZM375.185 132.32C375.185 131.573 375.35 130.912 375.681 130.336C376.022 129.76 376.481 129.307 377.057 128.976C377.633 128.645 378.278 128.48 378.993 128.48C379.718 128.48 380.364 128.645 380.929 128.976C381.505 129.307 381.958 129.76 382.289 130.336C382.63 130.912 382.801 131.573 382.801 132.32C382.801 133.056 382.63 133.717 382.289 134.304C381.958 134.88 381.505 135.333 380.929 135.664C380.364 135.995 379.718 136.16 378.993 136.16C378.278 136.16 377.633 135.995 377.057 135.664C376.481 135.333 376.022 134.88 375.681 134.304C375.35 133.717 375.185 133.056 375.185 132.32ZM376.481 132.32C376.481 132.832 376.588 133.285 376.801 133.68C377.025 134.075 377.324 134.389 377.697 134.624C378.081 134.848 378.513 134.96 378.993 134.96C379.473 134.96 379.9 134.848 380.273 134.624C380.657 134.389 380.956 134.075 381.169 133.68C381.393 133.285 381.505 132.832 381.505 132.32C381.505 131.808 381.393 131.355 381.169 130.96C380.956 130.555 380.657 130.24 380.273 130.016C379.9 129.792 379.473 129.68 378.993 129.68C378.513 129.68 378.081 129.792 377.697 130.016C377.324 130.24 377.025 130.555 376.801 130.96C376.588 131.355 376.481 131.808 376.481 132.32ZM385.919 133.12C385.919 133.707 386.053 134.16 386.319 134.48C386.586 134.8 386.975 134.96 387.487 134.96C387.861 134.96 388.186 134.885 388.463 134.736C388.751 134.576 388.97 134.357 389.119 134.08C389.279 133.803 389.359 133.483 389.359 133.12V128.64H390.639V136H389.359V134.848C389.114 135.285 388.81 135.616 388.447 135.84C388.085 136.053 387.658 136.16 387.167 136.16C386.399 136.16 385.786 135.899 385.327 135.376C384.869 134.853 384.639 134.155 384.639 133.28V128.64H385.919V133.12ZM394.406 128.64V136H393.126V128.64H394.406ZM396.63 130.048C396.459 129.92 396.304 129.829 396.166 129.776C396.027 129.712 395.851 129.68 395.638 129.68C395.318 129.68 395.067 129.76 394.886 129.92C394.704 130.08 394.576 130.299 394.502 130.576C394.438 130.853 394.406 131.168 394.406 131.52H393.83C393.83 130.933 393.931 130.416 394.134 129.968C394.347 129.509 394.619 129.147 394.95 128.88C395.28 128.613 395.616 128.48 395.958 128.48C396.224 128.48 396.47 128.517 396.694 128.592C396.928 128.656 397.142 128.789 397.334 128.992L396.63 130.048ZM404.767 139.52H403.487V128.64H404.767V139.52ZM410.927 132.32C410.927 133.109 410.762 133.792 410.431 134.368C410.1 134.944 409.658 135.387 409.103 135.696C408.559 136.005 407.951 136.16 407.279 136.16C406.671 136.16 406.132 136.005 405.663 135.696C405.204 135.387 404.842 134.944 404.575 134.368C404.319 133.792 404.191 133.109 404.191 132.32C404.191 131.52 404.319 130.837 404.575 130.272C404.842 129.696 405.204 129.253 405.663 128.944C406.132 128.635 406.671 128.48 407.279 128.48C407.951 128.48 408.559 128.635 409.103 128.944C409.658 129.253 410.1 129.696 410.431 130.272C410.762 130.837 410.927 131.52 410.927 132.32ZM409.631 132.32C409.631 131.755 409.514 131.275 409.279 130.88C409.055 130.485 408.751 130.187 408.367 129.984C407.994 129.781 407.578 129.68 407.119 129.68C406.746 129.68 406.378 129.781 406.015 129.984C405.652 130.187 405.354 130.485 405.119 130.88C404.884 131.275 404.767 131.755 404.767 132.32C404.767 132.885 404.884 133.365 405.119 133.76C405.354 134.155 405.652 134.453 406.015 134.656C406.378 134.859 406.746 134.96 407.119 134.96C407.578 134.96 407.994 134.859 408.367 134.656C408.751 134.453 409.055 134.155 409.279 133.76C409.514 133.365 409.631 132.885 409.631 132.32ZM412.772 123.52H414.052V136H412.772V123.52ZM417.115 133.728C417.115 134.005 417.179 134.245 417.307 134.448C417.446 134.651 417.633 134.805 417.867 134.912C418.113 135.008 418.39 135.056 418.699 135.056C419.094 135.056 419.446 134.976 419.755 134.816C420.075 134.656 420.326 134.432 420.507 134.144C420.699 133.845 420.795 133.504 420.795 133.12L421.051 134.08C421.051 134.549 420.907 134.939 420.619 135.248C420.342 135.557 419.995 135.787 419.579 135.936C419.174 136.085 418.769 136.16 418.363 136.16C417.915 136.16 417.494 136.069 417.099 135.888C416.715 135.696 416.406 135.424 416.171 135.072C415.937 134.72 415.819 134.293 415.819 133.792C415.819 133.077 416.07 132.507 416.571 132.08C417.083 131.643 417.793 131.424 418.699 131.424C419.233 131.424 419.675 131.488 420.027 131.616C420.39 131.733 420.678 131.872 420.891 132.032C421.105 132.181 421.249 132.304 421.323 132.4V133.152C420.95 132.896 420.566 132.715 420.171 132.608C419.777 132.491 419.355 132.432 418.907 132.432C418.491 132.432 418.15 132.485 417.883 132.592C417.627 132.699 417.435 132.848 417.307 133.04C417.179 133.232 417.115 133.461 417.115 133.728ZM416.923 130.336L416.299 129.392C416.577 129.189 416.955 128.987 417.435 128.784C417.926 128.581 418.513 128.48 419.195 128.48C419.771 128.48 420.273 128.571 420.699 128.752C421.137 128.923 421.473 129.173 421.707 129.504C421.953 129.835 422.075 130.24 422.075 130.72V136H420.795V130.896C420.795 130.64 420.753 130.432 420.667 130.272C420.582 130.101 420.459 129.968 420.299 129.872C420.15 129.776 419.974 129.707 419.771 129.664C419.569 129.621 419.355 129.6 419.131 129.6C418.769 129.6 418.438 129.643 418.139 129.728C417.851 129.813 417.606 129.915 417.403 130.032C417.201 130.149 417.041 130.251 416.923 130.336ZM423.202 128.64H426.882V129.84H423.202V128.64ZM424.402 126.08H425.682V136H424.402V126.08ZM427.686 128.64H431.366V129.84H427.686V128.64ZM431.238 125.056C431.132 124.875 431.004 124.763 430.854 124.72C430.716 124.667 430.582 124.64 430.454 124.64C430.294 124.64 430.156 124.688 430.038 124.784C429.932 124.869 429.846 125.019 429.782 125.232C429.718 125.445 429.686 125.728 429.686 126.08V136H428.406V125.92C428.406 125.333 428.492 124.853 428.662 124.48C428.833 124.107 429.073 123.829 429.382 123.648C429.702 123.456 430.086 123.36 430.534 123.36C430.769 123.36 430.977 123.392 431.158 123.456C431.34 123.52 431.494 123.6 431.622 123.696C431.761 123.792 431.868 123.893 431.942 124L431.238 125.056ZM432.264 132.32C432.264 131.573 432.43 130.912 432.76 130.336C433.102 129.76 433.56 129.307 434.136 128.976C434.712 128.645 435.358 128.48 436.072 128.48C436.798 128.48 437.443 128.645 438.008 128.976C438.584 129.307 439.038 129.76 439.368 130.336C439.71 130.912 439.88 131.573 439.88 132.32C439.88 133.056 439.71 133.717 439.368 134.304C439.038 134.88 438.584 135.333 438.008 135.664C437.443 135.995 436.798 136.16 436.072 136.16C435.358 136.16 434.712 135.995 434.136 135.664C433.56 135.333 433.102 134.88 432.76 134.304C432.43 133.717 432.264 133.056 432.264 132.32ZM433.56 132.32C433.56 132.832 433.667 133.285 433.88 133.68C434.104 134.075 434.403 134.389 434.776 134.624C435.16 134.848 435.592 134.96 436.072 134.96C436.552 134.96 436.979 134.848 437.352 134.624C437.736 134.389 438.035 134.075 438.248 133.68C438.472 133.285 438.584 132.832 438.584 132.32C438.584 131.808 438.472 131.355 438.248 130.96C438.035 130.555 437.736 130.24 437.352 130.016C436.979 129.792 436.552 129.68 436.072 129.68C435.592 129.68 435.16 129.792 434.776 130.016C434.403 130.24 434.104 130.555 433.88 130.96C433.667 131.355 433.56 131.808 433.56 132.32ZM442.999 128.64V136H441.719V128.64H442.999ZM445.223 130.048C445.052 129.92 444.897 129.829 444.759 129.776C444.62 129.712 444.444 129.68 444.231 129.68C443.911 129.68 443.66 129.76 443.479 129.92C443.297 130.08 443.169 130.299 443.095 130.576C443.031 130.853 442.999 131.168 442.999 131.52H442.423C442.423 130.933 442.524 130.416 442.727 129.968C442.94 129.509 443.212 129.147 443.543 128.88C443.873 128.613 444.209 128.48 444.551 128.48C444.817 128.48 445.063 128.517 445.287 128.592C445.521 128.656 445.735 128.789 445.927 128.992L445.223 130.048ZM457.363 131.36V136H456.083V131.52C456.083 130.891 455.966 130.427 455.731 130.128C455.507 129.829 455.155 129.68 454.675 129.68C454.323 129.68 454.019 129.755 453.763 129.904C453.507 130.043 453.31 130.251 453.171 130.528C453.032 130.805 452.963 131.136 452.963 131.52V136H451.683V131.52C451.683 130.891 451.566 130.427 451.331 130.128C451.107 129.829 450.755 129.68 450.275 129.68C449.923 129.68 449.619 129.755 449.363 129.904C449.107 130.043 448.91 130.251 448.771 130.528C448.632 130.805 448.563 131.136 448.563 131.52V136H447.283V128.64H448.563V129.712C448.787 129.296 449.064 128.987 449.395 128.784C449.736 128.581 450.136 128.48 450.595 128.48C451.107 128.48 451.544 128.603 451.907 128.848C452.28 129.083 452.552 129.419 452.723 129.856C452.979 129.397 453.299 129.056 453.683 128.832C454.067 128.597 454.504 128.48 454.995 128.48C455.496 128.48 455.923 128.592 456.275 128.816C456.627 129.04 456.894 129.371 457.075 129.808C457.267 130.235 457.363 130.752 457.363 131.36ZM463.604 132.8V131.6H466.804V132.8H463.604ZM474.321 123.52V136H473.041V123.52H474.321ZM477.761 131.52C477.761 130.912 477.627 130.453 477.361 130.144C477.105 129.835 476.715 129.68 476.193 129.68C475.819 129.68 475.489 129.76 475.201 129.92C474.923 130.08 474.705 130.299 474.545 130.576C474.395 130.853 474.321 131.168 474.321 131.52H473.905C473.905 130.933 474.017 130.416 474.241 129.968C474.465 129.509 474.769 129.147 475.153 128.88C475.547 128.613 476.001 128.48 476.513 128.48C477.025 128.48 477.467 128.587 477.841 128.8C478.225 129.013 478.518 129.333 478.721 129.76C478.934 130.187 479.041 130.72 479.041 131.36V136H477.761V131.52ZM481.527 125.6C481.527 125.355 481.612 125.147 481.783 124.976C481.964 124.805 482.172 124.72 482.407 124.72C482.652 124.72 482.86 124.805 483.031 124.976C483.202 125.147 483.287 125.355 483.287 125.6C483.287 125.835 483.202 126.043 483.031 126.224C482.86 126.395 482.652 126.48 482.407 126.48C482.172 126.48 481.964 126.395 481.783 126.224C481.612 126.043 481.527 125.835 481.527 125.6ZM481.767 128.64H483.047V136H481.767V128.64ZM485.267 136.48H486.563C486.563 136.832 486.659 137.157 486.851 137.456C487.043 137.765 487.315 138.011 487.667 138.192C488.019 138.384 488.435 138.48 488.915 138.48C489.288 138.48 489.656 138.389 490.019 138.208C490.382 138.027 490.68 137.739 490.915 137.344C491.16 136.96 491.283 136.459 491.283 135.84V128.64H492.563V135.84C492.563 136.683 492.387 137.387 492.035 137.952C491.683 138.528 491.23 138.96 490.675 139.248C490.12 139.536 489.534 139.68 488.915 139.68C488.2 139.68 487.566 139.547 487.011 139.28C486.467 139.013 486.04 138.635 485.731 138.144C485.422 137.664 485.267 137.109 485.267 136.48ZM485.123 132.32C485.123 131.52 485.288 130.837 485.619 130.272C485.95 129.696 486.392 129.253 486.947 128.944C487.502 128.635 488.11 128.48 488.771 128.48C489.39 128.48 489.928 128.635 490.387 128.944C490.846 129.253 491.203 129.696 491.459 130.272C491.726 130.837 491.859 131.52 491.859 132.32C491.859 133.109 491.726 133.792 491.459 134.368C491.203 134.944 490.846 135.387 490.387 135.696C489.928 136.005 489.39 136.16 488.771 136.16C488.11 136.16 487.502 136.005 486.947 135.696C486.392 135.387 485.95 134.944 485.619 134.368C485.288 133.792 485.123 133.109 485.123 132.32ZM486.419 132.32C486.419 132.885 486.531 133.365 486.755 133.76C486.99 134.155 487.299 134.453 487.683 134.656C488.067 134.859 488.483 134.96 488.931 134.96C489.304 134.96 489.672 134.859 490.035 134.656C490.398 134.453 490.696 134.155 490.931 133.76C491.166 133.365 491.283 132.885 491.283 132.32C491.283 131.893 491.214 131.52 491.075 131.2C490.936 130.869 490.75 130.592 490.515 130.368C490.291 130.144 490.04 129.973 489.763 129.856C489.486 129.739 489.208 129.68 488.931 129.68C488.483 129.68 488.067 129.781 487.683 129.984C487.299 130.187 486.99 130.485 486.755 130.88C486.531 131.275 486.419 131.755 486.419 132.32ZM496.248 123.52V136H494.968V123.52H496.248ZM499.688 131.52C499.688 130.912 499.555 130.453 499.288 130.144C499.032 129.835 498.643 129.68 498.12 129.68C497.747 129.68 497.416 129.76 497.128 129.92C496.851 130.08 496.632 130.299 496.472 130.576C496.323 130.853 496.248 131.168 496.248 131.52H495.832C495.832 130.933 495.944 130.416 496.168 129.968C496.392 129.509 496.696 129.147 497.08 128.88C497.475 128.613 497.928 128.48 498.44 128.48C498.952 128.48 499.395 128.587 499.768 128.8C500.152 129.013 500.445 129.333 500.648 129.76C500.861 130.187 500.968 130.72 500.968 131.36V136H499.688V131.52ZM502.334 132.8V131.6H505.534V132.8H502.334ZM512.414 139.52V128.64H513.694V139.52H512.414ZM506.254 132.32C506.254 131.52 506.419 130.837 506.75 130.272C507.08 129.696 507.523 129.253 508.078 128.944C508.632 128.635 509.24 128.48 509.902 128.48C510.52 128.48 511.059 128.635 511.518 128.944C511.976 129.253 512.334 129.696 512.59 130.272C512.856 130.837 512.99 131.52 512.99 132.32C512.99 133.109 512.856 133.792 512.59 134.368C512.334 134.944 511.976 135.387 511.518 135.696C511.059 136.005 510.52 136.16 509.902 136.16C509.24 136.16 508.632 136.005 508.078 135.696C507.523 135.387 507.08 134.944 506.75 134.368C506.419 133.792 506.254 133.109 506.254 132.32ZM507.55 132.32C507.55 132.885 507.662 133.365 507.886 133.76C508.12 134.155 508.43 134.453 508.814 134.656C509.198 134.859 509.614 134.96 510.062 134.96C510.435 134.96 510.803 134.859 511.166 134.656C511.528 134.453 511.827 134.155 512.062 133.76C512.296 133.365 512.414 132.885 512.414 132.32C512.414 131.755 512.296 131.275 512.062 130.88C511.827 130.485 511.528 130.187 511.166 129.984C510.803 129.781 510.435 129.68 510.062 129.68C509.614 129.68 509.198 129.781 508.814 129.984C508.43 130.187 508.12 130.485 507.886 130.88C507.662 131.275 507.55 131.755 507.55 132.32ZM517.379 133.12C517.379 133.707 517.512 134.16 517.779 134.48C518.045 134.8 518.435 134.96 518.947 134.96C519.32 134.96 519.645 134.885 519.923 134.736C520.211 134.576 520.429 134.357 520.579 134.08C520.739 133.803 520.819 133.483 520.819 133.12V128.64H522.099V136H520.819V134.848C520.573 135.285 520.269 135.616 519.907 135.84C519.544 136.053 519.117 136.16 518.627 136.16C517.859 136.16 517.245 135.899 516.787 135.376C516.328 134.853 516.099 134.155 516.099 133.28V128.64H517.379V133.12ZM525.161 133.728C525.161 134.005 525.225 134.245 525.353 134.448C525.492 134.651 525.678 134.805 525.913 134.912C526.158 135.008 526.436 135.056 526.745 135.056C527.14 135.056 527.492 134.976 527.801 134.816C528.121 134.656 528.372 134.432 528.553 134.144C528.745 133.845 528.841 133.504 528.841 133.12L529.097 134.08C529.097 134.549 528.953 134.939 528.665 135.248C528.388 135.557 528.041 135.787 527.625 135.936C527.22 136.085 526.814 136.16 526.409 136.16C525.961 136.16 525.54 136.069 525.145 135.888C524.761 135.696 524.452 135.424 524.217 135.072C523.982 134.72 523.865 134.293 523.865 133.792C523.865 133.077 524.116 132.507 524.617 132.08C525.129 131.643 525.838 131.424 526.745 131.424C527.278 131.424 527.721 131.488 528.073 131.616C528.436 131.733 528.724 131.872 528.937 132.032C529.15 132.181 529.294 132.304 529.369 132.4V133.152C528.996 132.896 528.612 132.715 528.217 132.608C527.822 132.491 527.401 132.432 526.953 132.432C526.537 132.432 526.196 132.485 525.929 132.592C525.673 132.699 525.481 132.848 525.353 133.04C525.225 133.232 525.161 133.461 525.161 133.728ZM524.969 130.336L524.345 129.392C524.622 129.189 525.001 128.987 525.481 128.784C525.972 128.581 526.558 128.48 527.241 128.48C527.817 128.48 528.318 128.571 528.745 128.752C529.182 128.923 529.518 129.173 529.753 129.504C529.998 129.835 530.121 130.24 530.121 130.72V136H528.841V130.896C528.841 130.64 528.798 130.432 528.713 130.272C528.628 130.101 528.505 129.968 528.345 129.872C528.196 129.776 528.02 129.707 527.817 129.664C527.614 129.621 527.401 129.6 527.177 129.6C526.814 129.6 526.484 129.643 526.185 129.728C525.897 129.813 525.652 129.915 525.449 130.032C525.246 130.149 525.086 130.251 524.969 130.336ZM532.368 123.52H533.648V136H532.368V123.52ZM536.136 125.6C536.136 125.355 536.221 125.147 536.392 124.976C536.573 124.805 536.781 124.72 537.016 124.72C537.261 124.72 537.469 124.805 537.64 124.976C537.81 125.147 537.896 125.355 537.896 125.6C537.896 125.835 537.81 126.043 537.64 126.224C537.469 126.395 537.261 126.48 537.016 126.48C536.781 126.48 536.573 126.395 536.392 126.224C536.221 126.043 536.136 125.835 536.136 125.6ZM536.376 128.64H537.656V136H536.376V128.64ZM539.252 128.64H542.932V129.84H539.252V128.64ZM540.452 126.08H541.732V136H540.452V126.08ZM550.136 128.64L545.336 139.52H543.896L545.912 134.96L543.096 128.64H544.616L546.952 134.4L546.424 134.336L548.696 128.64H550.136ZM16.2 149.6C16.2 149.355 16.2853 149.147 16.456 148.976C16.6373 148.805 16.8453 148.72 17.08 148.72C17.3253 148.72 17.5333 148.805 17.704 148.976C17.8747 149.147 17.96 149.355 17.96 149.6C17.96 149.835 17.8747 150.043 17.704 150.224C17.5333 150.395 17.3253 150.48 17.08 150.48C16.8453 150.48 16.6373 150.395 16.456 150.224C16.2853 150.043 16.2 149.835 16.2 149.6ZM16.44 152.64H17.72V160H16.44V152.64ZM25.1562 155.52C25.1562 154.912 25.0229 154.453 24.7563 154.144C24.4896 153.835 24.1003 153.68 23.5883 153.68C23.2149 153.68 22.8843 153.76 22.5963 153.92C22.3189 154.069 22.1003 154.283 21.9403 154.56C21.7909 154.837 21.7162 155.157 21.7162 155.52V160H20.4362V152.64H21.7162V153.792C21.9616 153.344 22.2656 153.013 22.6283 152.8C23.0016 152.587 23.4283 152.48 23.9083 152.48C24.6869 152.48 25.3003 152.741 25.7483 153.264C26.2069 153.776 26.4363 154.475 26.4363 155.36V160H25.1562V155.52ZM28.4265 160.48H29.7225C29.7225 160.832 29.8185 161.157 30.0105 161.456C30.2025 161.765 30.4745 162.011 30.8265 162.192C31.1785 162.384 31.5945 162.48 32.0745 162.48C32.4478 162.48 32.8158 162.389 33.1785 162.208C33.5412 162.027 33.8398 161.739 34.0745 161.344C34.3198 160.96 34.4425 160.459 34.4425 159.84V152.64H35.7225V159.84C35.7225 160.683 35.5465 161.387 35.1945 161.952C34.8425 162.528 34.3892 162.96 33.8345 163.248C33.2798 163.536 32.6932 163.68 32.0745 163.68C31.3598 163.68 30.7252 163.547 30.1705 163.28C29.6265 163.013 29.1998 162.635 28.8905 162.144C28.5812 161.664 28.4265 161.109 28.4265 160.48ZM28.2825 156.32C28.2825 155.52 28.4478 154.837 28.7785 154.272C29.1092 153.696 29.5518 153.253 30.1065 152.944C30.6612 152.635 31.2692 152.48 31.9305 152.48C32.5492 152.48 33.0878 152.635 33.5465 152.944C34.0052 153.253 34.3625 153.696 34.6185 154.272C34.8852 154.837 35.0185 155.52 35.0185 156.32C35.0185 157.109 34.8852 157.792 34.6185 158.368C34.3625 158.944 34.0052 159.387 33.5465 159.696C33.0878 160.005 32.5492 160.16 31.9305 160.16C31.2692 160.16 30.6612 160.005 30.1065 159.696C29.5518 159.387 29.1092 158.944 28.7785 158.368C28.4478 157.792 28.2825 157.109 28.2825 156.32ZM29.5785 156.32C29.5785 156.885 29.6905 157.365 29.9145 157.76C30.1492 158.155 30.4585 158.453 30.8425 158.656C31.2265 158.859 31.6425 158.96 32.0905 158.96C32.4638 158.96 32.8318 158.859 33.1945 158.656C33.5572 158.453 33.8558 158.155 34.0905 157.76C34.3252 157.365 34.4425 156.885 34.4425 156.32C34.4425 155.893 34.3732 155.52 34.2345 155.2C34.0958 154.869 33.9092 154.592 33.6745 154.368C33.4505 154.144 33.1998 153.973 32.9225 153.856C32.6452 153.739 32.3678 153.68 32.0905 153.68C31.6425 153.68 31.2265 153.781 30.8425 153.984C30.4585 154.187 30.1492 154.485 29.9145 154.88C29.6905 155.275 29.5785 155.755 29.5785 156.32ZM39.4075 152.64V160H38.1275V152.64H39.4075ZM41.6315 154.048C41.4608 153.92 41.3062 153.829 41.1675 153.776C41.0288 153.712 40.8528 153.68 40.6395 153.68C40.3195 153.68 40.0688 153.76 39.8875 153.92C39.7062 154.08 39.5782 154.299 39.5035 154.576C39.4395 154.853 39.4075 155.168 39.4075 155.52H38.8315C38.8315 154.933 38.9328 154.416 39.1355 153.968C39.3488 153.509 39.6208 153.147 39.9515 152.88C40.2822 152.613 40.6182 152.48 40.9595 152.48C41.2262 152.48 41.4715 152.517 41.6955 152.592C41.9302 152.656 42.1435 152.789 42.3355 152.992L41.6315 154.048ZM46.3055 160.16C45.6228 160.16 45.0148 160 44.4815 159.68C43.9588 159.349 43.5482 158.896 43.2495 158.32C42.9615 157.744 42.8175 157.077 42.8175 156.32C42.8175 155.552 42.9668 154.88 43.2655 154.304C43.5748 153.728 44.0015 153.28 44.5455 152.96C45.1002 152.64 45.7402 152.48 46.4655 152.48C47.1908 152.48 47.8095 152.635 48.3215 152.944C48.8442 153.243 49.2442 153.675 49.5215 154.24C49.7988 154.805 49.9375 155.477 49.9375 156.256C49.9375 156.331 49.9322 156.411 49.9215 156.496C49.9215 156.571 49.9215 156.619 49.9215 156.64H43.6335V155.552H48.9135L48.4015 156.288C48.4335 156.235 48.4655 156.155 48.4975 156.048C48.5295 155.931 48.5455 155.835 48.5455 155.76C48.5455 155.323 48.4548 154.944 48.2735 154.624C48.1028 154.304 47.8628 154.053 47.5535 153.872C47.2442 153.691 46.8815 153.6 46.4655 153.6C45.9748 153.6 45.5535 153.707 45.2015 153.92C44.8602 154.123 44.5935 154.421 44.4015 154.816C44.2202 155.2 44.1242 155.675 44.1135 156.24C44.1135 156.816 44.2042 157.307 44.3855 157.712C44.5668 158.117 44.8335 158.427 45.1855 158.64C45.5375 158.853 45.9642 158.96 46.4655 158.96C46.9668 158.96 47.4095 158.853 47.7935 158.64C48.1775 158.416 48.5028 158.08 48.7695 157.632L49.8095 158.288C49.4255 158.907 48.9402 159.376 48.3535 159.696C47.7775 160.005 47.0948 160.16 46.3055 160.16ZM57.2919 147.52H58.5719V160H57.2919V147.52ZM51.1319 156.32C51.1319 155.52 51.2972 154.837 51.6279 154.272C51.9585 153.696 52.4012 153.253 52.9559 152.944C53.5105 152.635 54.1185 152.48 54.7799 152.48C55.3985 152.48 55.9372 152.635 56.3959 152.944C56.8545 153.253 57.2119 153.696 57.4679 154.272C57.7345 154.837 57.8679 155.52 57.8679 156.32C57.8679 157.109 57.7345 157.792 57.4679 158.368C57.2119 158.944 56.8545 159.387 56.3959 159.696C55.9372 160.005 55.3985 160.16 54.7799 160.16C54.1185 160.16 53.5105 160.005 52.9559 159.696C52.4012 159.387 51.9585 158.944 51.6279 158.368C51.2972 157.792 51.1319 157.109 51.1319 156.32ZM52.4279 156.32C52.4279 156.885 52.5399 157.365 52.7639 157.76C52.9985 158.155 53.3079 158.453 53.6919 158.656C54.0759 158.859 54.4919 158.96 54.9399 158.96C55.3132 158.96 55.6812 158.859 56.0439 158.656C56.4065 158.453 56.7052 158.155 56.9399 157.76C57.1745 157.365 57.2919 156.885 57.2919 156.32C57.2919 155.755 57.1745 155.275 56.9399 154.88C56.7052 154.485 56.4065 154.187 56.0439 153.984C55.6812 153.781 55.3132 153.68 54.9399 153.68C54.4919 153.68 54.0759 153.781 53.6919 153.984C53.3079 154.187 52.9985 154.485 52.7639 154.88C52.5399 155.275 52.4279 155.755 52.4279 156.32ZM60.9769 149.6C60.9769 149.355 61.0622 149.147 61.2329 148.976C61.4142 148.805 61.6222 148.72 61.8569 148.72C62.1022 148.72 62.3102 148.805 62.4809 148.976C62.6515 149.147 62.7369 149.355 62.7369 149.6C62.7369 149.835 62.6515 150.043 62.4809 150.224C62.3102 150.395 62.1022 150.48 61.8569 150.48C61.6222 150.48 61.4142 150.395 61.2329 150.224C61.0622 150.043 60.9769 149.835 60.9769 149.6ZM61.2169 152.64H62.4969V160H61.2169V152.64ZM68.0611 160.16C67.3785 160.16 66.7705 160 66.2371 159.68C65.7145 159.349 65.3038 158.896 65.0051 158.32C64.7171 157.744 64.5731 157.077 64.5731 156.32C64.5731 155.552 64.7225 154.88 65.0211 154.304C65.3305 153.728 65.7571 153.28 66.3011 152.96C66.8558 152.64 67.4958 152.48 68.2211 152.48C68.9465 152.48 69.5651 152.635 70.0771 152.944C70.5998 153.243 70.9998 153.675 71.2771 154.24C71.5545 154.805 71.6931 155.477 71.6931 156.256C71.6931 156.331 71.6878 156.411 71.6771 156.496C71.6771 156.571 71.6771 156.619 71.6771 156.64H65.3891V155.552H70.6691L70.1571 156.288C70.1891 156.235 70.2211 156.155 70.2531 156.048C70.2851 155.931 70.3011 155.835 70.3011 155.76C70.3011 155.323 70.2105 154.944 70.0291 154.624C69.8585 154.304 69.6185 154.053 69.3091 153.872C68.9998 153.691 68.6371 153.6 68.2211 153.6C67.7305 153.6 67.3091 153.707 66.9571 153.92C66.6158 154.123 66.3491 154.421 66.1571 154.816C65.9758 155.2 65.8798 155.675 65.8691 156.24C65.8691 156.816 65.9598 157.307 66.1411 157.712C66.3225 158.117 66.5891 158.427 66.9411 158.64C67.2931 158.853 67.7198 158.96 68.2211 158.96C68.7225 158.96 69.1651 158.853 69.5491 158.64C69.9331 158.416 70.2585 158.08 70.5251 157.632L71.5651 158.288C71.1811 158.907 70.6958 159.376 70.1091 159.696C69.5331 160.005 68.8505 160.16 68.0611 160.16ZM78.2475 155.52C78.2475 154.912 78.1142 154.453 77.8475 154.144C77.5808 153.835 77.1915 153.68 76.6795 153.68C76.3062 153.68 75.9755 153.76 75.6875 153.92C75.4102 154.069 75.1915 154.283 75.0315 154.56C74.8822 154.837 74.8075 155.157 74.8075 155.52V160H73.5275V152.64H74.8075V153.792C75.0528 153.344 75.3568 153.013 75.7195 152.8C76.0928 152.587 76.5195 152.48 76.9995 152.48C77.7782 152.48 78.3915 152.741 78.8395 153.264C79.2982 153.776 79.5275 154.475 79.5275 155.36V160H78.2475V155.52ZM80.8938 152.64H84.5738V153.84H80.8938V152.64ZM82.0938 150.08H83.3738V160H82.0938V150.08ZM86.2415 157.744C86.3908 157.968 86.5615 158.176 86.7535 158.368C86.9455 158.56 87.1642 158.715 87.4095 158.832C87.6655 158.939 87.9428 158.992 88.2415 158.992C88.6042 158.992 88.8868 158.912 89.0895 158.752C89.3028 158.581 89.4095 158.352 89.4095 158.064C89.4095 157.808 89.3242 157.595 89.1535 157.424C88.9935 157.243 88.7855 157.093 88.5295 156.976C88.2735 156.848 88.0015 156.731 87.7135 156.624C87.3935 156.496 87.0682 156.347 86.7375 156.176C86.4175 155.995 86.1455 155.765 85.9215 155.488C85.7082 155.2 85.6015 154.843 85.6015 154.416C85.6015 153.979 85.7135 153.616 85.9375 153.328C86.1722 153.04 86.4708 152.827 86.8335 152.688C87.2068 152.549 87.5908 152.48 87.9855 152.48C88.3802 152.48 88.7482 152.544 89.0895 152.672C89.4415 152.8 89.7508 152.971 90.0175 153.184C90.2842 153.397 90.4922 153.643 90.6415 153.92L89.6175 154.576C89.4148 154.299 89.1588 154.069 88.8495 153.888C88.5508 153.707 88.2095 153.616 87.8255 153.616C87.5588 153.616 87.3295 153.675 87.1375 153.792C86.9455 153.909 86.8495 154.091 86.8495 154.336C86.8495 154.528 86.9242 154.699 87.0735 154.848C87.2228 154.997 87.4148 155.131 87.6495 155.248C87.8842 155.365 88.1295 155.477 88.3855 155.584C88.8122 155.755 89.2015 155.941 89.5535 156.144C89.9055 156.336 90.1828 156.571 90.3855 156.848C90.5988 157.125 90.7055 157.483 90.7055 157.92C90.7055 158.56 90.4708 159.093 90.0015 159.52C89.5428 159.947 88.9348 160.16 88.1775 160.16C87.6868 160.16 87.2442 160.075 86.8495 159.904C86.4548 159.723 86.1188 159.493 85.8415 159.216C85.5748 158.939 85.3722 158.656 85.2335 158.368L86.2415 157.744ZM96.7875 152.64H100.467V153.84H96.7875V152.64ZM100.339 149.056C100.233 148.875 100.105 148.763 99.9555 148.72C99.8168 148.667 99.6835 148.64 99.5555 148.64C99.3955 148.64 99.2568 148.688 99.1395 148.784C99.0328 148.869 98.9475 149.019 98.8835 149.232C98.8195 149.445 98.7875 149.728 98.7875 150.08V160H97.5075V149.92C97.5075 149.333 97.5928 148.853 97.7635 148.48C97.9342 148.107 98.1742 147.829 98.4835 147.648C98.8035 147.456 99.1875 147.36 99.6355 147.36C99.8702 147.36 100.078 147.392 100.259 147.456C100.441 147.52 100.595 147.6 100.723 147.696C100.862 147.792 100.969 147.893 101.043 148L100.339 149.056ZM101.366 156.32C101.366 155.573 101.531 154.912 101.862 154.336C102.203 153.76 102.662 153.307 103.238 152.976C103.814 152.645 104.459 152.48 105.174 152.48C105.899 152.48 106.544 152.645 107.11 152.976C107.686 153.307 108.139 153.76 108.47 154.336C108.811 154.912 108.982 155.573 108.982 156.32C108.982 157.056 108.811 157.717 108.47 158.304C108.139 158.88 107.686 159.333 107.11 159.664C106.544 159.995 105.899 160.16 105.174 160.16C104.459 160.16 103.814 159.995 103.238 159.664C102.662 159.333 102.203 158.88 101.862 158.304C101.531 157.717 101.366 157.056 101.366 156.32ZM102.662 156.32C102.662 156.832 102.768 157.285 102.982 157.68C103.206 158.075 103.504 158.389 103.878 158.624C104.262 158.848 104.694 158.96 105.174 158.96C105.654 158.96 106.08 158.848 106.454 158.624C106.838 158.389 107.136 158.075 107.35 157.68C107.574 157.285 107.686 156.832 107.686 156.32C107.686 155.808 107.574 155.355 107.35 154.96C107.136 154.555 106.838 154.24 106.454 154.016C106.08 153.792 105.654 153.68 105.174 153.68C104.694 153.68 104.262 153.792 103.878 154.016C103.504 154.24 103.206 154.555 102.982 154.96C102.768 155.355 102.662 155.808 102.662 156.32ZM112.1 152.64V160H110.82V152.64H112.1ZM114.324 154.048C114.153 153.92 113.999 153.829 113.86 153.776C113.721 153.712 113.545 153.68 113.332 153.68C113.012 153.68 112.761 153.76 112.58 153.92C112.399 154.08 112.271 154.299 112.196 154.576C112.132 154.853 112.1 155.168 112.1 155.52H111.524C111.524 154.933 111.625 154.416 111.828 153.968C112.041 153.509 112.313 153.147 112.644 152.88C112.975 152.613 113.311 152.48 113.652 152.48C113.919 152.48 114.164 152.517 114.388 152.592C114.623 152.656 114.836 152.789 115.028 152.992L114.324 154.048ZM122.541 147.52V160H121.261V147.52H122.541ZM125.981 155.52C125.981 154.912 125.848 154.453 125.581 154.144C125.325 153.835 124.936 153.68 124.413 153.68C124.04 153.68 123.709 153.76 123.421 153.92C123.144 154.08 122.925 154.299 122.765 154.576C122.616 154.853 122.541 155.168 122.541 155.52H122.125C122.125 154.933 122.237 154.416 122.461 153.968C122.685 153.509 122.989 153.147 123.373 152.88C123.768 152.613 124.221 152.48 124.733 152.48C125.245 152.48 125.688 152.587 126.061 152.8C126.445 153.013 126.739 153.333 126.941 153.76C127.155 154.187 127.261 154.72 127.261 155.36V160H125.981V155.52ZM129.748 149.6C129.748 149.355 129.833 149.147 130.004 148.976C130.185 148.805 130.393 148.72 130.628 148.72C130.873 148.72 131.081 148.805 131.252 148.976C131.422 149.147 131.508 149.355 131.508 149.6C131.508 149.835 131.422 150.043 131.252 150.224C131.081 150.395 130.873 150.48 130.628 150.48C130.393 150.48 130.185 150.395 130.004 150.224C129.833 150.043 129.748 149.835 129.748 149.6ZM129.988 152.64H131.268V160H129.988V152.64ZM133.488 160.48H134.784C134.784 160.832 134.88 161.157 135.072 161.456C135.264 161.765 135.536 162.011 135.888 162.192C136.24 162.384 136.656 162.48 137.136 162.48C137.509 162.48 137.877 162.389 138.24 162.208C138.602 162.027 138.901 161.739 139.136 161.344C139.381 160.96 139.504 160.459 139.504 159.84V152.64H140.784V159.84C140.784 160.683 140.608 161.387 140.256 161.952C139.904 162.528 139.45 162.96 138.896 163.248C138.341 163.536 137.754 163.68 137.136 163.68C136.421 163.68 135.786 163.547 135.232 163.28C134.688 163.013 134.261 162.635 133.952 162.144C133.642 161.664 133.488 161.109 133.488 160.48ZM133.344 156.32C133.344 155.52 133.509 154.837 133.84 154.272C134.17 153.696 134.613 153.253 135.168 152.944C135.722 152.635 136.33 152.48 136.992 152.48C137.61 152.48 138.149 152.635 138.608 152.944C139.066 153.253 139.424 153.696 139.68 154.272C139.946 154.837 140.08 155.52 140.08 156.32C140.08 157.109 139.946 157.792 139.68 158.368C139.424 158.944 139.066 159.387 138.608 159.696C138.149 160.005 137.61 160.16 136.992 160.16C136.33 160.16 135.722 160.005 135.168 159.696C134.613 159.387 134.17 158.944 133.84 158.368C133.509 157.792 133.344 157.109 133.344 156.32ZM134.64 156.32C134.64 156.885 134.752 157.365 134.976 157.76C135.21 158.155 135.52 158.453 135.904 158.656C136.288 158.859 136.704 158.96 137.152 158.96C137.525 158.96 137.893 158.859 138.256 158.656C138.618 158.453 138.917 158.155 139.152 157.76C139.386 157.365 139.504 156.885 139.504 156.32C139.504 155.893 139.434 155.52 139.296 155.2C139.157 154.869 138.97 154.592 138.736 154.368C138.512 154.144 138.261 153.973 137.984 153.856C137.706 153.739 137.429 153.68 137.152 153.68C136.704 153.68 136.288 153.781 135.904 153.984C135.52 154.187 135.21 154.485 134.976 154.88C134.752 155.275 134.64 155.755 134.64 156.32ZM144.469 147.52V160H143.189V147.52H144.469ZM147.909 155.52C147.909 154.912 147.775 154.453 147.509 154.144C147.253 153.835 146.863 153.68 146.341 153.68C145.967 153.68 145.637 153.76 145.349 153.92C145.071 154.08 144.853 154.299 144.693 154.576C144.543 154.853 144.469 155.168 144.469 155.52H144.053C144.053 154.933 144.165 154.416 144.389 153.968C144.613 153.509 144.917 153.147 145.301 152.88C145.695 152.613 146.149 152.48 146.661 152.48C147.173 152.48 147.615 152.587 147.989 152.8C148.373 153.013 148.666 153.333 148.869 153.76C149.082 154.187 149.189 154.72 149.189 155.36V160H147.909V155.52ZM162.072 163.52V152.64H163.352V163.52H162.072ZM155.912 156.32C155.912 155.52 156.077 154.837 156.408 154.272C156.739 153.696 157.181 153.253 157.736 152.944C158.291 152.635 158.899 152.48 159.56 152.48C160.179 152.48 160.717 152.635 161.176 152.944C161.635 153.253 161.992 153.696 162.248 154.272C162.515 154.837 162.648 155.52 162.648 156.32C162.648 157.109 162.515 157.792 162.248 158.368C161.992 158.944 161.635 159.387 161.176 159.696C160.717 160.005 160.179 160.16 159.56 160.16C158.899 160.16 158.291 160.005 157.736 159.696C157.181 159.387 156.739 158.944 156.408 158.368C156.077 157.792 155.912 157.109 155.912 156.32ZM157.208 156.32C157.208 156.885 157.32 157.365 157.544 157.76C157.779 158.155 158.088 158.453 158.472 158.656C158.856 158.859 159.272 158.96 159.72 158.96C160.093 158.96 160.461 158.859 160.824 158.656C161.187 158.453 161.485 158.155 161.72 157.76C161.955 157.365 162.072 156.885 162.072 156.32C162.072 155.755 161.955 155.275 161.72 154.88C161.485 154.485 161.187 154.187 160.824 153.984C160.461 153.781 160.093 153.68 159.72 153.68C159.272 153.68 158.856 153.781 158.472 153.984C158.088 154.187 157.779 154.485 157.544 154.88C157.32 155.275 157.208 155.755 157.208 156.32ZM167.037 157.12C167.037 157.707 167.17 158.16 167.437 158.48C167.704 158.8 168.093 158.96 168.605 158.96C168.978 158.96 169.304 158.885 169.581 158.736C169.869 158.576 170.088 158.357 170.237 158.08C170.397 157.803 170.477 157.483 170.477 157.12V152.64H171.757V160H170.477V158.848C170.232 159.285 169.928 159.616 169.565 159.84C169.202 160.053 168.776 160.16 168.285 160.16C167.517 160.16 166.904 159.899 166.445 159.376C165.986 158.853 165.757 158.155 165.757 157.28V152.64H167.037V157.12ZM174.819 157.728C174.819 158.005 174.883 158.245 175.011 158.448C175.15 158.651 175.336 158.805 175.571 158.912C175.816 159.008 176.094 159.056 176.403 159.056C176.798 159.056 177.15 158.976 177.459 158.816C177.779 158.656 178.03 158.432 178.211 158.144C178.403 157.845 178.499 157.504 178.499 157.12L178.755 158.08C178.755 158.549 178.611 158.939 178.323 159.248C178.046 159.557 177.699 159.787 177.283 159.936C176.878 160.085 176.472 160.16 176.067 160.16C175.619 160.16 175.198 160.069 174.803 159.888C174.419 159.696 174.11 159.424 173.875 159.072C173.64 158.72 173.523 158.293 173.523 157.792C173.523 157.077 173.774 156.507 174.275 156.08C174.787 155.643 175.496 155.424 176.403 155.424C176.936 155.424 177.379 155.488 177.731 155.616C178.094 155.733 178.382 155.872 178.595 156.032C178.808 156.181 178.952 156.304 179.027 156.4V157.152C178.654 156.896 178.27 156.715 177.875 156.608C177.48 156.491 177.059 156.432 176.611 156.432C176.195 156.432 175.854 156.485 175.587 156.592C175.331 156.699 175.139 156.848 175.011 157.04C174.883 157.232 174.819 157.461 174.819 157.728ZM174.627 154.336L174.003 153.392C174.28 153.189 174.659 152.987 175.139 152.784C175.63 152.581 176.216 152.48 176.899 152.48C177.475 152.48 177.976 152.571 178.403 152.752C178.84 152.923 179.176 153.173 179.411 153.504C179.656 153.835 179.779 154.24 179.779 154.72V160H178.499V154.896C178.499 154.64 178.456 154.432 178.371 154.272C178.286 154.101 178.163 153.968 178.003 153.872C177.854 153.776 177.678 153.707 177.475 153.664C177.272 153.621 177.059 153.6 176.835 153.6C176.472 153.6 176.142 153.643 175.843 153.728C175.555 153.813 175.31 153.915 175.107 154.032C174.904 154.149 174.744 154.251 174.627 154.336ZM182.026 147.52H183.306V160H182.026V147.52ZM185.794 149.6C185.794 149.355 185.879 149.147 186.05 148.976C186.231 148.805 186.439 148.72 186.674 148.72C186.919 148.72 187.127 148.805 187.298 148.976C187.468 149.147 187.554 149.355 187.554 149.6C187.554 149.835 187.468 150.043 187.298 150.224C187.127 150.395 186.919 150.48 186.674 150.48C186.439 150.48 186.231 150.395 186.05 150.224C185.879 150.043 185.794 149.835 185.794 149.6ZM186.034 152.64H187.314V160H186.034V152.64ZM188.91 152.64H192.59V153.84H188.91V152.64ZM190.11 150.08H191.39V160H190.11V150.08ZM199.794 152.64L194.994 163.52H193.554L195.57 158.96L192.754 152.64H194.274L196.61 158.4L196.082 158.336L198.354 152.64H199.794ZM207.158 163.52H205.878V152.64H207.158V163.52ZM213.318 156.32C213.318 157.109 213.152 157.792 212.822 158.368C212.491 158.944 212.048 159.387 211.494 159.696C210.95 160.005 210.342 160.16 209.67 160.16C209.062 160.16 208.523 160.005 208.054 159.696C207.595 159.387 207.232 158.944 206.966 158.368C206.71 157.792 206.582 157.109 206.582 156.32C206.582 155.52 206.71 154.837 206.966 154.272C207.232 153.696 207.595 153.253 208.054 152.944C208.523 152.635 209.062 152.48 209.67 152.48C210.342 152.48 210.95 152.635 211.494 152.944C212.048 153.253 212.491 153.696 212.822 154.272C213.152 154.837 213.318 155.52 213.318 156.32ZM212.022 156.32C212.022 155.755 211.904 155.275 211.67 154.88C211.446 154.485 211.142 154.187 210.758 153.984C210.384 153.781 209.968 153.68 209.51 153.68C209.136 153.68 208.768 153.781 208.406 153.984C208.043 154.187 207.744 154.485 207.51 154.88C207.275 155.275 207.158 155.755 207.158 156.32C207.158 156.885 207.275 157.365 207.51 157.76C207.744 158.155 208.043 158.453 208.406 158.656C208.768 158.859 209.136 158.96 209.51 158.96C209.968 158.96 210.384 158.859 210.758 158.656C211.142 158.453 211.446 158.155 211.67 157.76C211.904 157.365 212.022 156.885 212.022 156.32ZM216.442 152.64V160H215.162V152.64H216.442ZM218.666 154.048C218.496 153.92 218.341 153.829 218.202 153.776C218.064 153.712 217.888 153.68 217.674 153.68C217.354 153.68 217.104 153.76 216.922 153.92C216.741 154.08 216.613 154.299 216.538 154.576C216.474 154.853 216.442 155.168 216.442 155.52H215.866C215.866 154.933 215.968 154.416 216.17 153.968C216.384 153.509 216.656 153.147 216.986 152.88C217.317 152.613 217.653 152.48 217.994 152.48C218.261 152.48 218.506 152.517 218.73 152.592C218.965 152.656 219.178 152.789 219.37 152.992L218.666 154.048ZM219.852 156.32C219.852 155.573 220.018 154.912 220.348 154.336C220.69 153.76 221.148 153.307 221.724 152.976C222.3 152.645 222.946 152.48 223.66 152.48C224.386 152.48 225.031 152.645 225.596 152.976C226.172 153.307 226.626 153.76 226.956 154.336C227.298 154.912 227.468 155.573 227.468 156.32C227.468 157.056 227.298 157.717 226.956 158.304C226.626 158.88 226.172 159.333 225.596 159.664C225.031 159.995 224.386 160.16 223.66 160.16C222.946 160.16 222.3 159.995 221.724 159.664C221.148 159.333 220.69 158.88 220.348 158.304C220.018 157.717 219.852 157.056 219.852 156.32ZM221.148 156.32C221.148 156.832 221.255 157.285 221.468 157.68C221.692 158.075 221.991 158.389 222.364 158.624C222.748 158.848 223.18 158.96 223.66 158.96C224.14 158.96 224.567 158.848 224.94 158.624C225.324 158.389 225.623 158.075 225.836 157.68C226.06 157.285 226.172 156.832 226.172 156.32C226.172 155.808 226.06 155.355 225.836 154.96C225.623 154.555 225.324 154.24 224.94 154.016C224.567 153.792 224.14 153.68 223.66 153.68C223.18 153.68 222.748 153.792 222.364 154.016C221.991 154.24 221.692 154.555 221.468 154.96C221.255 155.355 221.148 155.808 221.148 156.32ZM234.827 147.52H236.107V160H234.827V147.52ZM228.667 156.32C228.667 155.52 228.832 154.837 229.163 154.272C229.494 153.696 229.936 153.253 230.491 152.944C231.046 152.635 231.654 152.48 232.315 152.48C232.934 152.48 233.472 152.635 233.931 152.944C234.39 153.253 234.747 153.696 235.003 154.272C235.27 154.837 235.403 155.52 235.403 156.32C235.403 157.109 235.27 157.792 235.003 158.368C234.747 158.944 234.39 159.387 233.931 159.696C233.472 160.005 232.934 160.16 232.315 160.16C231.654 160.16 231.046 160.005 230.491 159.696C229.936 159.387 229.494 158.944 229.163 158.368C228.832 157.792 228.667 157.109 228.667 156.32ZM229.963 156.32C229.963 156.885 230.075 157.365 230.299 157.76C230.534 158.155 230.843 158.453 231.227 158.656C231.611 158.859 232.027 158.96 232.475 158.96C232.848 158.96 233.216 158.859 233.579 158.656C233.942 158.453 234.24 158.155 234.475 157.76C234.71 157.365 234.827 156.885 234.827 156.32C234.827 155.755 234.71 155.275 234.475 154.88C234.24 154.485 233.942 154.187 233.579 153.984C233.216 153.781 232.848 153.68 232.475 153.68C232.027 153.68 231.611 153.781 231.227 153.984C230.843 154.187 230.534 154.485 230.299 154.88C230.075 155.275 229.963 155.755 229.963 156.32ZM239.792 157.12C239.792 157.707 239.925 158.16 240.192 158.48C240.459 158.8 240.848 158.96 241.36 158.96C241.733 158.96 242.059 158.885 242.336 158.736C242.624 158.576 242.843 158.357 242.992 158.08C243.152 157.803 243.232 157.483 243.232 157.12V152.64H244.512V160H243.232V158.848C242.987 159.285 242.683 159.616 242.32 159.84C241.957 160.053 241.531 160.16 241.04 160.16C240.272 160.16 239.659 159.899 239.2 159.376C238.741 158.853 238.512 158.155 238.512 157.28V152.64H239.792V157.12ZM247.574 156.32C247.574 156.832 247.681 157.285 247.894 157.68C248.118 158.075 248.417 158.389 248.79 158.624C249.174 158.848 249.606 158.96 250.086 158.96C250.481 158.96 250.849 158.901 251.19 158.784C251.542 158.656 251.846 158.491 252.102 158.288C252.358 158.075 252.539 157.851 252.646 157.616V159.216C252.39 159.515 252.022 159.749 251.542 159.92C251.073 160.08 250.587 160.16 250.086 160.16C249.371 160.16 248.726 159.995 248.15 159.664C247.574 159.333 247.115 158.88 246.774 158.304C246.443 157.717 246.278 157.056 246.278 156.32C246.278 155.573 246.443 154.912 246.774 154.336C247.115 153.76 247.574 153.307 248.15 152.976C248.726 152.645 249.371 152.48 250.086 152.48C250.587 152.48 251.073 152.565 251.542 152.736C252.022 152.896 252.39 153.125 252.646 153.424V155.024C252.539 154.779 252.358 154.555 252.102 154.352C251.846 154.149 251.542 153.989 251.19 153.872C250.849 153.744 250.481 153.68 250.086 153.68C249.606 153.68 249.174 153.792 248.79 154.016C248.417 154.24 248.118 154.555 247.894 154.96C247.681 155.355 247.574 155.808 247.574 156.32ZM253.599 152.64H257.279V153.84H253.599V152.64ZM254.799 150.08H256.079V160H254.799V150.08ZM258.947 157.744C259.096 157.968 259.267 158.176 259.459 158.368C259.651 158.56 259.869 158.715 260.115 158.832C260.371 158.939 260.648 158.992 260.947 158.992C261.309 158.992 261.592 158.912 261.795 158.752C262.008 158.581 262.115 158.352 262.115 158.064C262.115 157.808 262.029 157.595 261.859 157.424C261.699 157.243 261.491 157.093 261.235 156.976C260.979 156.848 260.707 156.731 260.419 156.624C260.099 156.496 259.773 156.347 259.443 156.176C259.123 155.995 258.851 155.765 258.627 155.488C258.413 155.2 258.307 154.843 258.307 154.416C258.307 153.979 258.419 153.616 258.643 153.328C258.877 153.04 259.176 152.827 259.539 152.688C259.912 152.549 260.296 152.48 260.691 152.48C261.085 152.48 261.453 152.544 261.795 152.672C262.147 152.8 262.456 152.971 262.723 153.184C262.989 153.397 263.197 153.643 263.347 153.92L262.323 154.576C262.12 154.299 261.864 154.069 261.555 153.888C261.256 153.707 260.915 153.616 260.531 153.616C260.264 153.616 260.035 153.675 259.843 153.792C259.651 153.909 259.555 154.091 259.555 154.336C259.555 154.528 259.629 154.699 259.779 154.848C259.928 154.997 260.12 155.131 260.355 155.248C260.589 155.365 260.835 155.477 261.091 155.584C261.517 155.755 261.907 155.941 262.259 156.144C262.611 156.336 262.888 156.571 263.091 156.848C263.304 157.125 263.411 157.483 263.411 157.92C263.411 158.56 263.176 159.093 262.707 159.52C262.248 159.947 261.64 160.16 260.883 160.16C260.392 160.16 259.949 160.075 259.555 159.904C259.16 159.723 258.824 159.493 258.547 159.216C258.28 158.939 258.077 158.656 257.939 158.368L258.947 157.744ZM265.576 148.8H267.176L266.856 156.8H265.896L265.576 148.8ZM265.496 159.36C265.496 159.115 265.581 158.907 265.752 158.736C265.933 158.565 266.141 158.48 266.376 158.48C266.621 158.48 266.829 158.565 267 158.736C267.17 158.907 267.256 159.115 267.256 159.36C267.256 159.595 267.17 159.803 267 159.984C266.829 160.155 266.621 160.24 266.376 160.24C266.141 160.24 265.933 160.155 265.752 159.984C265.581 159.803 265.496 159.595 265.496 159.36Z" fill="#727272"/>
</svg>
