<svg width="131" height="130" viewBox="0 0 131 130" fill="none" xmlns="http://www.w3.org/2000/svg">
<rect x="0.910156" width="130" height="130" rx="65" fill="white"/>
<g clip-path="url(#clip0_7_804)">
<path d="M65.6878 41.6072C71.6129 41.6146 77.3204 43.8409 81.6855 47.8475C86.0506 51.854 88.7568 57.3502 89.2708 63.253H91.8538C91.3497 56.7091 88.4128 50.5913 83.6219 46.1053C78.8309 41.6193 72.5335 39.0905 65.9706 39.0173C59.4077 38.944 53.0554 41.3316 48.1655 45.7095C43.2756 50.0875 40.2028 56.1381 39.5528 62.6692H42.1358C42.7861 56.8773 45.5471 51.5279 49.8916 47.6428C54.2361 43.7576 59.8595 41.6089 65.6878 41.6072ZM65.6878 88.9489C59.688 88.9435 53.9134 86.6629 49.529 82.5671C45.1446 78.4713 42.4767 72.8652 42.0635 66.8796H39.4805C39.8929 73.4964 42.7935 79.7121 47.5996 84.2786C52.4057 88.8452 58.7616 91.4244 65.3908 91.4983C72.02 91.5723 78.4318 89.1353 83.3385 84.6771C88.2452 80.2188 91.2836 74.0692 91.8435 67.4633H89.2605C88.709 73.3355 85.9879 78.7911 81.6288 82.7643C77.2697 86.7374 71.5859 88.9426 65.6878 88.9489Z" fill="#003569"/>
<path d="M85.2595 71.7924C85.0557 71.7891 84.8557 71.7372 84.676 71.6411C84.4963 71.5449 84.3421 71.4073 84.2263 71.2396C84.0304 70.9587 83.9541 70.6115 84.0142 70.2744C84.0743 69.9373 84.2658 69.6378 84.5466 69.4418L89.6816 65.8618C89.8205 65.7607 89.9782 65.6882 90.1454 65.6488C90.3126 65.6093 90.4861 65.6036 90.6555 65.632C90.825 65.6604 90.9871 65.7223 91.1323 65.8141C91.2775 65.906 91.4029 66.0259 91.5012 66.1668C91.5995 66.3077 91.6687 66.4668 91.7048 66.6348C91.7408 66.8028 91.7429 66.9764 91.7111 67.1453C91.6792 67.3141 91.614 67.4749 91.5192 67.6182C91.4244 67.7615 91.302 67.8844 91.1591 67.9798L86.0241 71.5598C85.7999 71.7156 85.5324 71.797 85.2595 71.7924Z" fill="#003569"/>
<path d="M94.0147 73.2699C93.8067 73.2699 93.6019 73.2196 93.4175 73.1234C93.2331 73.0271 93.0747 72.8879 92.9557 72.7172L89.386 67.6131C89.2886 67.4741 89.2196 67.3171 89.1829 67.1514C89.1462 66.9857 89.1425 66.8143 89.172 66.6472C89.2015 66.48 89.2636 66.3203 89.3548 66.1771C89.4461 66.0339 89.5646 65.9101 89.7037 65.8127C89.8427 65.7154 89.9996 65.6464 90.1654 65.6097C90.3311 65.5729 90.5025 65.5693 90.6696 65.5988C90.8368 65.6283 90.9966 65.6905 91.1397 65.7817C91.2829 65.8729 91.4067 65.9915 91.5041 66.1305L95.0738 71.2397C95.2076 71.4315 95.2868 71.656 95.303 71.8894C95.3192 72.1227 95.2717 72.3561 95.1656 72.5645C95.0595 72.773 94.8988 72.9487 94.7007 73.0729C94.5025 73.1972 94.2744 73.2652 94.0406 73.2699H94.0147Z" fill="#003569"/>
<path d="M41.0289 64.1569C40.751 64.1567 40.4805 64.0669 40.2578 63.9008C40.035 63.7346 39.8717 63.5011 39.7922 63.2348C39.7128 62.9685 39.7213 62.6837 39.8165 62.4226C39.9118 62.1615 40.0888 61.9382 40.3211 61.7857L45.5595 58.3555C45.7016 58.2625 45.8606 58.1984 46.0276 58.1669C46.1944 58.1354 46.3659 58.1372 46.5321 58.172C46.6983 58.2067 46.8561 58.274 46.9963 58.3697C47.1366 58.4655 47.2566 58.5878 47.3495 58.7299C47.4425 58.8721 47.5065 59.0311 47.538 59.198C47.5695 59.3649 47.5678 59.5364 47.533 59.7026C47.4982 59.8688 47.4311 60.0265 47.3353 60.1667C47.2396 60.307 47.1171 60.4271 46.975 60.52L41.7314 63.945C41.5236 64.084 41.2789 64.1579 41.0289 64.1569Z" fill="#003569"/>
<path d="M40.9526 64.1569C40.7382 64.1573 40.5272 64.104 40.3386 64.002C40.1501 63.9001 39.99 63.7526 39.8729 63.5731L36.453 58.3658C36.3597 58.224 36.2952 58.0652 36.2633 57.8985C36.2314 57.7318 36.2326 57.5605 36.2669 57.3943C36.3012 57.2281 36.3679 57.0702 36.4632 56.9298C36.5585 56.7893 36.6805 56.669 36.8223 56.5757C36.9641 56.4824 37.1229 56.418 37.2896 56.386C37.4563 56.3541 37.6276 56.3554 37.7938 56.3897C37.9601 56.424 38.1179 56.4906 38.2583 56.5859C38.3988 56.6812 38.5191 56.8034 38.6124 56.9451L42.0323 62.1576C42.1599 62.3524 42.2324 62.578 42.2423 62.8107C42.2522 63.0433 42.199 63.2743 42.0883 63.4791C41.9777 63.684 41.8137 63.8551 41.6138 63.9744C41.4139 64.0937 41.1854 64.1568 40.9526 64.1569Z" fill="#003569"/>
<path d="M52.5703 57.3791L55.3599 55.9998L65.1754 51.149C65.3239 51.0753 65.4874 51.0369 65.6532 51.0369C65.819 51.0369 65.9826 51.0753 66.1311 51.149C67.5776 51.8516 69.1894 52.6006 70.6462 53.3084L69.7008 53.825L57.8964 59.864C57.8281 59.9061 57.7494 59.9284 57.6691 59.9284C57.5889 59.9284 57.5102 59.9061 57.4418 59.864C55.892 59.0891 54.3422 58.3142 52.7924 57.5652C52.7039 57.5228 52.6275 57.4588 52.5703 57.3791Z" fill="#003569"/>
<path d="M64.711 66.0272C64.711 70.5045 64.711 74.9817 64.711 79.4589C64.711 79.4848 64.711 79.5107 64.711 79.5468C64.6077 79.5727 64.5405 79.5003 64.463 79.4589L52.1833 73.0428C51.9613 72.9462 51.774 72.7841 51.6466 72.5782C51.5192 72.3724 51.4577 72.1325 51.4704 71.8907C51.4704 67.7786 51.4704 63.6698 51.4704 59.5645V59.2701L54.0534 60.5513L56.5435 61.7704C56.6287 61.7983 56.7019 61.8545 56.7507 61.9297C56.7996 62.0049 56.8213 62.0945 56.8121 62.1837C56.8121 63.6251 56.8121 65.0664 56.8121 66.5078C56.8015 66.7273 56.8594 66.9447 56.9779 67.1298C57.0964 67.3149 57.2696 67.4587 57.4734 67.541C57.6561 67.63 57.8618 67.6602 58.0625 67.6279C58.2631 67.5955 58.4489 67.502 58.5944 67.3601C58.7135 67.256 58.8071 67.126 58.868 66.98C58.9289 66.834 58.9555 66.676 58.9457 66.5181C58.9457 65.3558 58.9457 64.1934 58.9457 63.0259C59.0748 63.0259 59.1627 63.0878 59.2557 63.1343L64.4837 65.7173C64.5505 65.7367 64.6089 65.7776 64.65 65.8336C64.6912 65.8897 64.7126 65.9577 64.711 66.0272Z" fill="#003569"/>
<path d="M77.8224 57.9686L66.018 63.8216C65.9395 63.867 65.8504 63.8909 65.7597 63.8909C65.669 63.8909 65.5799 63.867 65.5014 63.8216C63.8173 62.9796 62.1331 62.1531 60.449 61.3162L60.0977 61.1302L61.3634 60.4844C65.1863 58.5282 69.0109 56.5703 72.8372 54.6107C72.9099 54.5675 72.9928 54.5446 73.0774 54.5446C73.1619 54.5446 73.2449 54.5675 73.3176 54.6107C75.0999 55.4992 76.8822 56.3722 78.6696 57.2505L78.9486 57.3951L77.8224 57.9686Z" fill="#003569"/>
<path d="M80.0407 59.3112V71.1931C80.0436 71.2067 80.0436 71.2208 80.0407 71.2344V72.3761C80.0412 72.4644 80.0173 72.5512 79.9718 72.6268C79.9262 72.7025 79.8607 72.7641 79.7824 72.8049L79.1521 73.1355C75.1226 75.2329 71.0948 77.3355 67.0688 79.4432H67.0326C67.0103 79.4538 66.9856 79.4586 66.9609 79.457C66.9363 79.4553 66.9124 79.4474 66.8917 79.4339C66.871 79.4204 66.8541 79.4019 66.8425 79.38C66.831 79.3582 66.8253 79.3336 66.8259 79.3089C66.8259 74.8868 66.8259 70.4612 66.8259 66.0322C66.8151 65.9615 66.8287 65.8893 66.8643 65.8274C66.9 65.7654 66.9557 65.7174 67.0222 65.6913C71.2859 63.5939 75.5462 61.4913 79.803 59.3836L79.9063 59.3474C79.9425 59.306 79.9942 59.306 80.0407 59.3112Z" fill="#003569"/>
</g>
<rect x="1.41016" y="0.5" width="129" height="129" rx="64.5" stroke="white" stroke-dasharray="3 2"/>
<defs>
<clipPath id="clip0_7_804">
<rect width="60" height="53" fill="white" transform="translate(35.9102 38.5)"/>
</clipPath>
</defs>
</svg>
