<svg width="131" height="130" viewBox="0 0 131 130" fill="none" xmlns="http://www.w3.org/2000/svg">
<rect x="0.630371" width="130" height="130" rx="65" fill="white"/>
<g clip-path="url(#clip0_7_792)">
<path d="M86.1581 66.0166V76.1628C86.1581 77.6443 85.4403 78.3792 83.9646 78.3792C78.6303 78.3792 73.296 78.3792 67.9616 78.3792C67.8135 78.3941 67.6642 78.3649 67.5325 78.2955C67.4007 78.226 67.2924 78.1194 67.2209 77.9888C65.9847 76.0011 64.0588 74.5393 61.8119 73.8831C61.6676 73.8564 61.5391 73.7755 61.4526 73.657C61.3661 73.5385 61.3282 73.3914 61.3468 73.2458C61.3468 67.389 61.3468 61.5321 61.3468 55.6752C61.3208 55.3997 61.3554 55.1219 61.4482 54.8613C61.541 54.6006 61.6898 54.3634 61.8841 54.1664C62.0783 53.9694 62.3134 53.8173 62.5728 53.7209C62.8321 53.6244 63.1094 53.586 63.3852 53.6082C65.8428 53.6082 68.2947 53.6082 70.7523 53.6082C71.2231 53.6082 71.3265 53.7517 71.3265 54.1824C71.3265 55.6293 71.3265 57.0533 71.3265 58.529C71.3157 59.1829 71.5648 59.8144 72.0191 60.2848C72.4734 60.7552 73.0957 61.0262 73.7496 61.0383C74.0782 61.0391 74.4037 60.9742 74.707 60.8476C75.0102 60.721 75.2852 60.5353 75.5157 60.3011C75.7462 60.0668 75.9276 59.7889 76.0493 59.4836C76.171 59.1784 76.2305 58.8518 76.2244 58.5232C76.2244 57.0533 76.2244 55.5833 76.2244 54.1134C76.2244 53.7057 76.3278 53.6024 76.7354 53.6082C79.2102 53.6082 81.6793 53.6082 84.1541 53.6082C84.4255 53.5867 84.6983 53.6242 84.9539 53.7181C85.2094 53.8119 85.4417 53.9598 85.6347 54.1518C85.8278 54.3438 85.9771 54.5751 86.0724 54.8302C86.1676 55.0852 86.2067 55.3578 86.1868 55.6294C86.1715 59.0937 86.1619 62.5561 86.1581 66.0166Z" fill="#003569"/>
<path d="M59.5282 89.6961C63.3905 89.6961 66.5216 86.5651 66.5216 82.7027C66.5216 78.8403 63.3905 75.7092 59.5282 75.7092C55.6658 75.7092 52.5347 78.8403 52.5347 82.7027C52.5347 86.5651 55.6658 89.6961 59.5282 89.6961Z" fill="#003569"/>
<path d="M89.3915 89.0938C89.177 89.0982 88.9639 89.0577 88.7661 88.9746C88.5683 88.8915 88.3901 88.7678 88.2431 88.6115L83.259 83.3059C83.2462 83.2911 83.2303 83.2792 83.2125 83.2713C83.1946 83.2633 83.1752 83.2594 83.1556 83.2599H60.7617C60.0246 83.258 59.3105 83.0024 58.7396 82.536C58.1686 82.0696 57.7756 81.421 57.6266 80.699L49.8577 42.974C49.8513 42.9414 49.8344 42.9118 49.8094 42.89C49.7845 42.8682 49.7529 42.8554 49.7198 42.8534L41.1068 42.5548C40.7021 42.5398 40.3198 42.3653 40.0434 42.0695C39.7669 41.7736 39.6187 41.3805 39.6311 40.9757C39.6431 40.5792 39.8094 40.203 40.0947 39.9273C40.3801 39.6516 40.7617 39.4983 41.1585 39.5L49.8347 39.7986C50.5539 39.822 51.2441 40.0877 51.7934 40.5525C52.3426 41.0174 52.7187 41.6541 52.8607 42.3595L60.6239 80.0846C60.6316 80.117 60.6499 80.1459 60.6759 80.1667C60.702 80.1875 60.7342 80.199 60.7675 80.1994H83.1614C83.5989 80.2019 84.0314 80.2926 84.433 80.4663C84.8345 80.64 85.1969 80.8929 85.4984 81.21L90.4825 86.5156C90.7585 86.813 90.9069 87.2068 90.8959 87.6124C90.8904 87.8135 90.8449 88.0115 90.7621 88.1949C90.6793 88.3783 90.5608 88.5433 90.4135 88.6804C90.1356 88.9397 89.7715 89.0869 89.3915 89.0938Z" fill="#003569"/>
</g>
<rect x="1.13037" y="0.5" width="129" height="129" rx="64.5" stroke="white" stroke-dasharray="3 2"/>
<defs>
<clipPath id="clip0_7_792">
<rect width="52" height="51" fill="white" transform="translate(39.6304 39.5)"/>
</clipPath>
</defs>
</svg>
